<?xml version="1.0" encoding="UTF-8"?>
<svg width="607px" height="607px" viewBox="0 0 607 607" version="1.1" xmlns="http://www.w3.org/2000/svg" xmlns:xlink="http://www.w3.org/1999/xlink">
    <!-- Generator: Sketch 40.1 (33804) - http://www.bohemiancoding.com/sketch -->
    <title>Our goal</title>
    <desc>Created with Sketch.</desc>
    <defs>
        <circle id="path-1" cx="300.5" cy="300.5" r="300.5"></circle>
        <rect id="path-3" x="84.1161826" y="18.2682927" width="45.5684647" height="184.731707"></rect>
        <mask id="mask-4" maskContentUnits="userSpaceOnUse" maskUnits="objectBoundingBox" x="0" y="0" width="45.5684647" height="184.731707" fill="white">
            <use xlink:href="#path-3"></use>
        </mask>
        <rect id="path-5" x="0.116182573" y="0.268292683" width="45.5684647" height="184.731707"></rect>
        <mask id="mask-6" maskContentUnits="userSpaceOnUse" maskUnits="objectBoundingBox" x="0" y="0" width="45.5684647" height="184.731707" fill="white">
            <use xlink:href="#path-5"></use>
        </mask>
        <rect id="path-7" x="169.116183" y="0.268292683" width="45.5684647" height="184.731707"></rect>
        <mask id="mask-8" maskContentUnits="userSpaceOnUse" maskUnits="objectBoundingBox" x="0" y="0" width="45.5684647" height="184.731707" fill="white">
            <use xlink:href="#path-7"></use>
        </mask>
        <path d="M28.780083,33.0379044 C53.551667,33.0379044 57.560166,33.0379044 57.560166,29.0074582 C57.560166,12.9870814 44.6748839,0 28.780083,0 C12.8852821,0 0,12.9870814 0,29.0074582 C0,33.0379044 4.00849895,33.0379044 28.780083,33.0379044 Z" id="path-9"></path>
        <path d="M28.780083,33.0379044 C53.551667,33.0379044 57.560166,33.0379044 57.560166,29.0074582 C57.560166,12.9870814 44.6748839,0 28.780083,0 C12.8852821,0 0,12.9870814 0,29.0074582 C0,33.0379044 4.00849895,33.0379044 28.780083,33.0379044 Z" id="path-11"></path>
        <path d="M28.780083,33.0379044 C53.551667,33.0379044 57.560166,33.0379044 57.560166,29.0074582 C57.560166,12.9870814 44.6748839,0 28.780083,0 C12.8852821,0 0,12.9870814 0,29.0074582 C0,33.0379044 4.00849895,33.0379044 28.780083,33.0379044 Z" id="path-13"></path>
        <path d="M0,2.54934838 C0,0.561375467 1.34144838,-0.167671911 3.00378946,0.933999286 C3.00378946,0.933999286 76.8425532,49.1330602 92.9947766,73.2476298 C109.147,97.3621994 100.122526,144.017747 100.122526,144.017747 C99.7959015,145.966046 97.9274106,147.545455 95.9299544,147.545455 L3.60116597,147.545455 C1.61229692,147.545455 0,145.9273 0,143.945911 L0,2.54934838 Z" id="path-15"></path>
        <mask id="mask-16" maskContentUnits="userSpaceOnUse" maskUnits="objectBoundingBox" x="0" y="0" width="102.635822" height="147.125459" fill="white">
            <use xlink:href="#path-15"></use>
        </mask>
        <rect id="path-17" x="2.39834025" y="123.554324" width="106.726141" height="23.9911308" rx="9.6"></rect>
        <mask id="mask-18" maskContentUnits="userSpaceOnUse" maskUnits="objectBoundingBox" x="0" y="0" width="106.726141" height="23.9911308" fill="white">
            <use xlink:href="#path-17"></use>
        </mask>
        <path d="M0,2.54934838 C0,0.561375467 1.34144838,-0.167671911 3.00378946,0.933999286 C3.00378946,0.933999286 76.8425532,49.1330602 92.9947766,73.2476298 C109.147,97.3621994 100.122526,144.017747 100.122526,144.017747 C99.7959015,145.966046 97.9274106,147.545455 95.9299544,147.545455 L3.60116597,147.545455 C1.61229692,147.545455 0,145.9273 0,143.945911 L0,2.54934838 Z" id="path-19"></path>
        <mask id="mask-20" maskContentUnits="userSpaceOnUse" maskUnits="objectBoundingBox" x="0" y="0" width="102.635822" height="147.125459" fill="white">
            <use xlink:href="#path-19"></use>
        </mask>
        <rect id="path-21" x="2.39834025" y="123.554324" width="106.726141" height="23.9911308" rx="9.6"></rect>
        <mask id="mask-22" maskContentUnits="userSpaceOnUse" maskUnits="objectBoundingBox" x="0" y="0" width="106.726141" height="23.9911308" fill="white">
            <use xlink:href="#path-21"></use>
        </mask>
        <path d="M98.1327801,69.1146695 C98.1327801,69.1146695 110.799584,0 144.832593,0 C178.865602,0 192.86722,69.1146695 192.86722,69.1146695 L192.86722,338.274789 C192.86722,340.262365 191.262675,341.873614 189.269198,341.873614 L101.730802,341.873614 C99.7436692,341.873614 98.1327801,340.271804 98.1327801,338.274789 L98.1327801,69.1146695 Z" id="path-23"></path>
        <mask id="mask-24" maskContentUnits="userSpaceOnUse" maskUnits="objectBoundingBox" x="0" y="0" width="94.7344398" height="341.873614" fill="white">
            <use xlink:href="#path-23"></use>
        </mask>
        <rect id="path-25" x="92.1369295" y="169.137472" width="106.726141" height="23.9911308" rx="9.6"></rect>
        <mask id="mask-26" maskContentUnits="userSpaceOnUse" maskUnits="objectBoundingBox" x="0" y="0" width="106.726141" height="23.9911308" fill="white">
            <use xlink:href="#path-25"></use>
        </mask>
    </defs>
    <g id="Ilus" stroke="none" stroke-width="1" fill="none" fill-rule="evenodd">
        <g id="Our-goal" transform="translate(3.000000, 3.000000)">
            <mask id="mask-2" fill="white">
                <use xlink:href="#path-1"></use>
            </mask>
            <use id="Oval-7" stroke="#000000" stroke-width="5" fill="#5C666F" xlink:href="#path-1"></use>
            <circle id="Oval-7" fill="#3C4349" mask="url(#mask-2)" cx="300.5" cy="300.5" r="225.5"></circle>
            <g id="Group-15" mask="url(#mask-2)">
                <g transform="translate(99.000000, 50.000000)">
                    <g id="Group-9" stroke="none" stroke-width="1" fill="none" transform="translate(94.000000, 338.000000)">
                        <use id="Rectangle-6" stroke="#000000" mask="url(#mask-4)" stroke-width="12" fill="#EB5424" xlink:href="#path-3"></use>
                        <rect id="Rectangle-6" fill-opacity="0.149999991" fill="#FFFFFF" x="98.5062241" y="18.2682927" width="16.7883817" height="184.731707"></rect>
                        <use id="Rectangle-6" stroke="#000000" mask="url(#mask-6)" stroke-width="12" fill="#EB5424" xlink:href="#path-5"></use>
                        <rect id="Rectangle-6" fill-opacity="0.149999991" fill="#FFFFFF" x="14.5062241" y="0.268292683" width="16.7883817" height="184.731707"></rect>
                        <use id="Rectangle-6" stroke="#000000" mask="url(#mask-8)" stroke-width="12" fill="#EB5424" xlink:href="#path-7"></use>
                        <rect id="Rectangle-6" fill-opacity="0.149999991" fill="#FFFFFF" x="183.506224" y="0.268292683" width="16.7883817" height="184.731707"></rect>
                    </g>
                    <path d="M107.039054,410.949308 C112.767844,403.099953 122.038343,398 132.5,398 C144.296927,398 154.579225,404.484896 159.976544,414.084337 C164.558218,411.484493 169.855748,410 175.5,410 C190.517806,410 203.081008,420.509407 206.236357,434.57497 C211.561901,430.453025 218.244483,428 225.5,428 C225.890685,428 226.279708,428.007112 226.666948,428.021215 C229.654247,413.73227 242.323795,403 257.5,403 C265.647645,403 273.072799,406.093353 278.6651,411.169696 C288.541977,404.737476 300.334521,401 313,401 C346.480363,401 373.860883,427.116535 375.880558,460.088604 C392.16552,461.305416 405,474.903881 405,491.5 C405,508.89697 390.89697,523 373.5,523 C371.268286,523 369.090779,522.767918 366.990295,522.326571 C366.032629,563.090999 294.321655,596 206,596 C117.082155,596 45,562.645214 45,521.5 C45,519.818507 45.120387,518.150024 45.3573901,516.496298 C19.1505242,508.866498 0,484.669671 0,456 C0,421.206061 28.2060608,393 63,393 C80.1396806,393 95.6807464,399.844484 107.039054,410.949308 Z" id="Combined-Shape" stroke="#000000" stroke-width="5" fill="#FFFFFF"></path>
                    <g id="Group-8" stroke="none" stroke-width="1" fill="none" transform="translate(56.000000, 0.000000)">
                        <g id="Group-2" transform="translate(116.120332, 331.077605)">
                            <mask id="mask-10" fill="white">
                                <use xlink:href="#path-9"></use>
                            </mask>
                            <use id="Oval-3" stroke="#000000" stroke-width="6" fill="#E3E5E7" xlink:href="#path-9"></use>
                        </g>
                        <g id="Group-2" transform="translate(32.120332, 313.077605)">
                            <mask id="mask-12" fill="white">
                                <use xlink:href="#path-11"></use>
                            </mask>
                            <use id="Oval-3" stroke="#000000" stroke-width="6" fill="#E3E5E7" xlink:href="#path-11"></use>
                        </g>
                        <g id="Group-2" transform="translate(201.120332, 313.077605)">
                            <mask id="mask-14" fill="white">
                                <use xlink:href="#path-13"></use>
                            </mask>
                            <use id="Oval-3" stroke="#000000" stroke-width="6" fill="#E3E5E7" xlink:href="#path-13"></use>
                        </g>
                        <g id="Group-6" transform="translate(180.875519, 178.733925)" stroke="#000000" stroke-width="12">
                            <use id="Rectangle-7" mask="url(#mask-16)" fill="#FFFFFF" xlink:href="#path-15"></use>
                            <use id="Rectangle-3" mask="url(#mask-18)" fill="#E3E5E7" xlink:href="#path-17"></use>
                        </g>
                        <g id="Group-6" transform="translate(55.124481, 252.733925) scale(-1, 1) translate(-55.124481, -252.733925) translate(0.124481, 178.733925)" stroke="#000000" stroke-width="12">
                            <use id="Rectangle-7" mask="url(#mask-20)" fill="#FFFFFF" xlink:href="#path-19"></use>
                            <use id="Rectangle-3" mask="url(#mask-22)" fill="#E3E5E7" xlink:href="#path-21"></use>
                        </g>
                        <use id="Rectangle-5" stroke="#000000" mask="url(#mask-24)" stroke-width="12" fill="#FFFFFF" xlink:href="#path-23"></use>
                        <g id="Group-7" transform="translate(114.921162, 71.973392)" stroke-width="6">
                            <ellipse id="Oval-5" stroke="#000000" fill="#5C666F" cx="30.5788382" cy="30.5886918" rx="30.5788382" ry="30.5886918"></ellipse>
                            <path d="M27.3400425,14.232108 C27.3400425,14.232108 23.6779706,14.709135 19.380545,19.1806291 C15.0831193,23.6521232 14.4795261,27.4520474 14.4795261,27.4520474" id="Path-2" stroke="#FFFFFF" stroke-linecap="round"></path>
                        </g>
                        <use id="Rectangle-3" stroke="#000000" mask="url(#mask-26)" stroke-width="12" fill="#E3E5E7" xlink:href="#path-25"></use>
                    </g>
                </g>
            </g>
            <circle id="Oval-7" stroke="#000000" stroke-width="5" mask="url(#mask-2)" cx="300.5" cy="300.5" r="300.5"></circle>
            <rect id="Rectangle-4" fill="#FFFFFF" mask="url(#mask-2)" x="169" y="106" width="18" height="18" rx="3"></rect>
            <rect id="Rectangle-4" fill="#EB5424" mask="url(#mask-2)" x="407" y="191" width="10" height="10" rx="1.66666667"></rect>
            <circle id="Oval-6" fill="#FFFFFF" mask="url(#mask-2)" cx="397" cy="136" r="5"></circle>
            <circle id="Oval-6" fill="#FFFFFF" mask="url(#mask-2)" cx="529" cy="400" r="5"></circle>
            <circle id="Oval-6" fill="#FFFFFF" mask="url(#mask-2)" cx="179" cy="250" r="5"></circle>
            <g id="Group-5" mask="url(#mask-2)" stroke-linecap="round" stroke="#FFFFFF" stroke-width="5">
                <g transform="translate(449.000000, 207.000000)" id="Line">
                    <path d="M16.5,0.5 L16.5,30.5"></path>
                    <path d="M0.5,15.5 L30.5,15.5"></path>
                </g>
            </g>
            <g id="Group-5" mask="url(#mask-2)" stroke-linecap="round" stroke="#FFFFFF" stroke-width="5">
                <g transform="translate(68.000000, 237.000000)" id="Line">
                    <path d="M16.5,0.5 L16.5,30.5"></path>
                    <path d="M0.5,15.5 L30.5,15.5"></path>
                </g>
            </g>
            <g id="Group-5" mask="url(#mask-2)" stroke-linecap="round" stroke="#EB5424" stroke-width="5">
                <g transform="translate(479.000000, 327.000000)" id="Line">
                    <path d="M16.5,0.5 L16.5,30.5"></path>
                    <path d="M0.5,15.5 L30.5,15.5"></path>
                </g>
            </g>
            <g id="Group-5" mask="url(#mask-2)" stroke-linecap="round" stroke="#EB5424" stroke-width="5">
                <g transform="translate(109.000000, 297.000000)" id="Line">
                    <path d="M16.5,0.5 L16.5,30.5"></path>
                    <path d="M0.5,15.5 L30.5,15.5"></path>
                </g>
            </g>
            <rect id="Rectangle-4" fill="#000000" mask="url(#mask-2)" x="517" y="267" width="18" height="18" rx="3"></rect>
            <rect id="Rectangle-4" fill="#000000" mask="url(#mask-2)" x="94" y="395" width="18" height="18" rx="3"></rect>
            <rect id="Rectangle-4" fill="#000000" mask="url(#mask-2)" x="451" y="411" width="10" height="10" rx="1.66666667"></rect>
            <rect id="Rectangle-4" fill="#000000" mask="url(#mask-2)" x="441" y="81" width="10" height="10" rx="1.66666667"></rect>
            <rect id="Rectangle-4" fill="#000000" mask="url(#mask-2)" x="141" y="191" width="10" height="10" rx="1.66666667"></rect>
            <g id="Group-5" mask="url(#mask-2)" stroke-linecap="round" stroke="#EB5424" stroke-width="3.75">
                <g transform="translate(205.000000, 161.000000)" id="Line">
                    <path d="M12.2419355,0.370967742 L12.2419355,22.6290323"></path>
                    <path d="M0.370967742,11.5 L22.6290323,11.5"></path>
                </g>
            </g>
        </g>
    </g>
</svg>