<?xml version="1.0" encoding="utf-8"?>
<!-- Generator: Adobe Illustrator 21.0.0, SVG Export Plug-In . SVG Version: 6.00 Build 0)  -->
<svg version="1.1" id="Слой_1" xmlns="http://www.w3.org/2000/svg" xmlns:xlink="http://www.w3.org/1999/xlink" x="0px" y="0px"
	 viewBox="0 0 113.402 74.881" style="enable-background:new 0 0 113.402 74.881;" xml:space="preserve">
<style type="text/css">
	.st0{opacity:0.149;clip-path:url(#SVGID_2_);fill-rule:evenodd;clip-rule:evenodd;fill:#5D6063;}
	.st1{clip-path:url(#SVGID_2_);fill-rule:evenodd;clip-rule:evenodd;fill:#FFFFFF;}
	
		.st2{clip-path:url(#SVGID_2_);fill:none;stroke:#5D6063;stroke-width:1.5001;stroke-linecap:round;stroke-linejoin:round;stroke-miterlimit:22.9256;}
	.st3{clip-path:url(#SVGID_2_);fill:none;stroke:#5D6063;stroke-width:1.5001;stroke-linejoin:round;stroke-miterlimit:22.9256;}
	
		.st4{clip-path:url(#SVGID_2_);fill:none;stroke:#5D6063;stroke-width:0.75;stroke-linecap:round;stroke-linejoin:round;stroke-miterlimit:22.9256;}
</style>
<g>
	<g>
		<defs>
			<rect id="SVGID_1_" width="113.402" height="74.881"/>
		</defs>
		<clipPath id="SVGID_2_">
			<use xlink:href="#SVGID_1_"  style="overflow:visible;"/>
		</clipPath>
		<path class="st0" d="M3.254,46.233L48.64,72.542c0,0,2.186,1.378,4.477,1.338c2.291-0.04,4.465-1.494,4.465-1.494l52.199-30.881
			c0,0,2.011-0.937,1.851-2.069c-0.16-1.132-2.445-2.142-2.445-2.142L63.308,10.86c0,0-1.458-0.885-3.093-0.859
			c-1.635,0.025-3.272,0.96-3.272,0.96L3.994,41.466c0,0-1.896,1.038-2.199,2.478C1.492,45.383,3.254,46.233,3.254,46.233"/>
		<path class="st1" d="M3.254,42.483L48.64,68.792c0,0,2.186,1.378,4.477,1.338c2.291-0.04,4.465-1.494,4.465-1.494l52.199-30.881
			c0,0,1.779-1.031,1.851-2.069c0.072-1.038-0.067-4.299-0.067-4.299L63.308,7.11c0,0-1.458-0.886-3.093-0.86
			c-1.635,0.026-3.272,0.96-3.272,0.96L1.754,36.148c0,0-0.024,2.698,0.041,4.046C1.86,41.541,3.254,42.483,3.254,42.483z"/>
		<path class="st2" d="M3.254,42.483L48.64,68.792c0,0,2.186,1.378,4.477,1.338c2.291-0.04,4.465-1.494,4.465-1.494l52.199-30.881
			c0,0,1.779-1.031,1.851-2.069c0.072-1.038-0.067-4.299-0.067-4.299L63.308,7.11c0,0-1.458-0.886-3.093-0.86
			c-1.635,0.026-3.272,0.96-3.272,0.96L1.754,36.148c0,0-0.024,2.698,0.041,4.046C1.86,41.541,3.254,42.483,3.254,42.483z"/>
		<path class="st1" d="M3.254,37.983L48.64,64.292c0,0,2.186,1.378,4.477,1.338c2.291-0.04,4.465-1.494,4.465-1.494l52.199-30.881
			c0,0,2.011-0.937,1.851-2.069c-0.16-1.132-2.445-2.142-2.445-2.142L63.308,2.61c0,0-1.458-0.886-3.093-0.86
			c-1.635,0.026-3.272,0.96-3.272,0.96L3.994,33.216c0,0-1.896,1.038-2.199,2.478C1.492,37.133,3.254,37.983,3.254,37.983z"/>
		<path class="st3" d="M3.254,37.983L48.64,64.292c0,0,2.186,1.378,4.477,1.338c2.291-0.04,4.465-1.494,4.465-1.494l52.199-30.881
			c0,0,2.011-0.937,1.851-2.069c-0.16-1.132-2.445-2.142-2.445-2.142L63.308,2.61c0,0-1.458-0.886-3.093-0.86
			c-1.635,0.026-3.272,0.96-3.272,0.96L3.994,33.216c0,0-1.896,1.038-2.199,2.478C1.492,37.133,3.254,37.983,3.254,37.983z"/>
		<path class="st4" d="M41.224,15.005l15.702-9.487c0,0,1.811-1.279,3.202-1.279C61.519,4.239,63,5.247,63,5.247l5.478,3.095"/>
		<polygon class="st0" points="60.689,39.138 73.642,31.643 86.537,39.069 73.634,46.817 		"/>
		<polygon class="st1" points="60.944,35.219 60.944,32.236 73.641,27.873 86.282,32.007 86.282,35.151 73.634,42.747 		"/>
		<polygon class="st2" points="60.944,35.219 60.944,32.236 73.641,27.873 86.282,32.007 86.282,35.151 73.634,42.747 		"/>
		<polygon class="st1" points="60.944,32.083 73.641,24.737 86.282,32.016 73.634,39.611 		"/>
		<polygon class="st2" points="60.944,32.083 73.641,24.737 86.282,32.016 73.634,39.611 		"/>
		<path class="st2" d="M73.583,39.458L73.583,39.458z M73.583,39.458v3.229"/>
		<polygon class="st0" points="54.67,38.353 48.267,49.595 35.64,42.128 		"/>
		<polygon class="st1" points="35.64,34.467 54.67,30.626 54.67,34.782 48.267,46.024 35.64,38.556 		"/>
		<polygon class="st2" points="35.64,34.467 54.67,30.626 54.67,34.782 48.267,46.024 35.64,38.556 		"/>
		<polygon class="st1" points="54.67,30.537 48.267,41.779 35.64,34.312 		"/>
		<polygon class="st2" points="54.67,30.537 48.267,41.779 35.64,34.312 		"/>
		<path class="st2" d="M48.188,42.396L48.188,42.396z M48.188,42.396v3.463"/>
		<path class="st0" d="M45.799,22.251c3.464-1.956,10.197-1.974,13.582-0.01c3.385,1.963,3.437,5.712-0.005,7.856
			c-3.441,2.144-10.272,1.988-13.672,0.001C42.304,28.11,42.336,24.207,45.799,22.251"/>
		<path class="st1" d="M45.799,18.679c3.464-1.956,10.197-1.974,13.582-0.011c3.385,1.963,3.437,5.712-0.005,7.856
			c-3.441,2.144-10.272,1.988-13.672,0.001C42.304,24.539,42.336,20.635,45.799,18.679z"/>
		<path class="st2" d="M45.799,18.679c3.464-1.956,10.197-1.974,13.582-0.011c3.385,1.963,3.437,5.712-0.005,7.856
			c-3.441,2.144-10.272,1.988-13.672,0.001C42.304,24.539,42.336,20.635,45.799,18.679z"/>
		<path class="st1" d="M45.799,15.284c3.464-1.956,10.197-1.974,13.582-0.011c3.385,1.963,3.437,5.712-0.005,7.856
			c-3.441,2.144-10.272,1.988-13.672,0.002C42.304,21.143,42.336,17.24,45.799,15.284z"/>
		<path class="st2" d="M45.799,15.284c3.464-1.956,10.197-1.974,13.582-0.011c3.385,1.963,3.437,5.712-0.005,7.856
			c-3.441,2.144-10.272,1.988-13.672,0.002C42.304,21.143,42.336,17.24,45.799,15.284z"/>
		<path class="st2" d="M61.932,19.606L61.932,19.606z M61.932,19.606v3.281"/>
		<path class="st2" d="M43.208,19.606L43.208,19.606z M43.208,19.606v3.281"/>
	</g>
</g>
</svg>
