<?xml version="1.0" encoding="utf-8"?>
<!-- Generator: Adobe Illustrator 21.0.0, SVG Export Plug-In . SVG Version: 6.00 Build 0)  -->
<svg version="1.1" id="Слой_1" xmlns="http://www.w3.org/2000/svg" xmlns:xlink="http://www.w3.org/1999/xlink" x="0px" y="0px"
	 viewBox="0 0 1008 612" style="enable-background:new 0 0 1008 612;" xml:space="preserve">
<style type="text/css">
	.st0{fill:#FFFFFF;stroke:#0E0F0F;stroke-miterlimit:10;}
	.st1{fill:#5D5F62;fill-opacity:0.15;}
	.st2{fill:#FFFFFF;stroke:#5D5F62;stroke-width:2;stroke-linecap:round;stroke-linejoin:round;}
	.st3{fill:#FFFFFF;stroke:#5D5F62;stroke-width:2;stroke-linejoin:round;}
	.st4{fill:none;stroke:#5D5F62;stroke-linecap:round;stroke-linejoin:round;}
	.st5{fill:none;}
	.st6{opacity:0.149;fill-rule:evenodd;clip-rule:evenodd;fill:#5E6063;}
	.st7{fill:none;stroke:#5E6063;stroke-width:1.8865;stroke-linejoin:round;stroke-miterlimit:22.9256;}
	.st8{fill-rule:evenodd;clip-rule:evenodd;fill:#BCD1EF;}
	.st9{fill:none;stroke:#5E6063;stroke-width:2.122;stroke-linecap:round;stroke-linejoin:round;stroke-miterlimit:22.9256;}
	.st10{fill-rule:evenodd;clip-rule:evenodd;fill:#FFFFFF;}
	.st11{fill:none;stroke:#5E6063;stroke-width:1.7824;stroke-miterlimit:22.9256;}
	.st12{fill:none;stroke:#5E6063;stroke-width:0.9434;stroke-linecap:round;stroke-linejoin:round;stroke-miterlimit:22.9256;}
	.st13{fill:none;stroke:#5E6063;stroke-width:2.1334;stroke-linecap:round;stroke-linejoin:round;stroke-miterlimit:22.9256;}
	.st14{opacity:0.149;clip-path:url(#SVGID_2_);fill-rule:evenodd;clip-rule:evenodd;fill:#5E6063;}
	.st15{clip-path:url(#SVGID_2_);fill-rule:evenodd;clip-rule:evenodd;fill:#BCD1EF;}
	
		.st16{clip-path:url(#SVGID_2_);fill:none;stroke:#5E6063;stroke-width:1.5001;stroke-linecap:round;stroke-linejoin:round;stroke-miterlimit:22.9256;}
	.st17{clip-path:url(#SVGID_2_);fill-rule:evenodd;clip-rule:evenodd;fill:#FFFFFF;}
	
		.st18{clip-path:url(#SVGID_2_);fill:none;stroke:#5E6063;stroke-width:0.75;stroke-linecap:round;stroke-linejoin:round;stroke-miterlimit:22.9256;}
	.st19{opacity:0.149;clip-path:url(#SVGID_4_);fill-rule:evenodd;clip-rule:evenodd;fill:#5D5F62;}
	.st20{clip-path:url(#SVGID_4_);fill-rule:evenodd;clip-rule:evenodd;fill:#FFFFFF;}
	.st21{clip-path:url(#SVGID_4_);fill:none;stroke:#5D5F62;stroke-width:1.4359;stroke-linejoin:round;stroke-miterlimit:22.9256;}
	.st22{clip-path:url(#SVGID_4_);fill-rule:evenodd;clip-rule:evenodd;fill:#BCD1EF;}
	.st23{opacity:0.149;fill-rule:evenodd;clip-rule:evenodd;fill:#5D5F62;}
	.st24{fill:#5D5F62;}
</style>
<g>
	<rect y="0.335" class="st0" width="187" height="121"/>
	<g id="Page-1_1_">
		<g id="introduction_1_">
			<path id="Path-43_6_" class="st1" d="M21.346,80.538l60.514,35.079c0,0,2.915,1.837,5.969,1.784
				c3.054-0.053,5.954-1.992,5.954-1.992l69.598-41.175c0,0,2.681-1.249,2.468-2.759c-0.213-1.51-3.26-2.856-3.26-2.856
				l-61.171-35.246c0,0-1.944-1.181-4.124-1.146c-2.18,0.034-4.363,1.28-4.363,1.28L22.334,74.182c0,0-2.528,1.384-2.932,3.303
				C18.998,79.404,21.346,80.538,21.346,80.538z"/>
			<path id="Path-43_5_" class="st2" d="M21.346,75.538l60.514,35.079c0,0,2.915,1.837,5.969,1.784
				c3.054-0.053,5.954-1.992,5.954-1.992l69.598-41.175c0,0,2.372-1.374,2.468-2.759s-0.09-5.731-0.09-5.731l-64.342-32.371
				c0,0-1.944-1.181-4.124-1.146s-4.363,1.28-4.363,1.28L19.347,67.091c0,0-0.032,3.598,0.055,5.394
				C19.489,74.282,21.346,75.538,21.346,75.538z"/>
			<path id="Path-43_3_" class="st3" d="M21.346,69.538l60.514,35.079c0,0,2.915,1.837,5.969,1.784
				c3.054-0.053,5.954-1.992,5.954-1.992l69.598-41.175c0,0,2.681-1.249,2.468-2.759c-0.213-1.51-3.26-2.856-3.26-2.856
				l-61.171-35.246c0,0-1.944-1.181-4.124-1.146s-4.363,1.28-4.363,1.28L22.334,63.182c0,0-2.528,1.384-2.932,3.303
				C18.998,68.404,21.346,69.538,21.346,69.538z"/>
			<path id="Path-255_1_" class="st4" d="M71.974,38.9L92.91,26.251c0,0,2.414-1.705,4.269-1.705c1.855,0,3.83,1.345,3.83,1.345
				l7.304,4.127"/>
		</g>
	</g>
</g>
<rect x="1235" class="st5" width="187" height="121"/>
<g id="Page-1_2_">
	<g id="introduction_2_">
		<path id="Path-43_4_" class="st1" d="M1256.346,79.174l60.514,35.079c0,0,2.915,1.837,5.969,1.784
			c3.054-0.053,5.954-1.992,5.954-1.992l69.598-41.175c0,0,2.681-1.249,2.468-2.759c-0.213-1.51-3.26-2.856-3.26-2.856
			l-61.171-35.246c0,0-1.944-1.181-4.124-1.146s-4.363,1.28-4.363,1.28l-70.598,40.674c0,0-2.528,1.384-2.932,3.303
			S1256.346,79.174,1256.346,79.174z"/>
		<path id="Path-43_2_" class="st2" d="M1256.346,74.174l60.514,35.079c0,0,2.915,1.837,5.969,1.784
			c3.054-0.053,5.954-1.992,5.954-1.992l69.598-41.175c0,0,2.372-1.374,2.468-2.759c0.096-1.384-0.09-5.731-0.09-5.731
			l-64.342-32.371c0,0-1.944-1.181-4.124-1.146s-4.363,1.28-4.363,1.28l-73.585,38.583c0,0-0.032,3.598,0.055,5.394
			C1254.489,72.918,1256.346,74.174,1256.346,74.174z"/>
		<path id="Path-43_1_" class="st3" d="M1256.346,68.174l60.514,35.079c0,0,2.915,1.837,5.969,1.784
			c3.054-0.053,5.954-1.992,5.954-1.992l69.598-41.175c0,0,2.681-1.249,2.468-2.759c-0.213-1.51-3.26-2.856-3.26-2.856
			l-61.171-35.246c0,0-1.944-1.181-4.124-1.146s-4.363,1.28-4.363,1.28l-70.598,40.674c0,0-2.528,1.384-2.932,3.303
			C1253.998,67.041,1256.346,68.174,1256.346,68.174z"/>
		<path id="Path-255_2_" class="st4" d="M1306.974,37.537l20.936-12.649c0,0,2.414-1.705,4.269-1.705c1.855,0,3.83,1.345,3.83,1.345
			l7.304,4.127"/>
	</g>
</g>
<rect x="1028" class="st5" width="187" height="121"/>
<g id="Page-1">
	<g id="basic-web-pages">
		<path id="Path-43" class="st1" d="M1049.346,79.174l60.514,35.079c0,0,2.915,1.837,5.969,1.784
			c3.054-0.053,5.954-1.992,5.954-1.992l69.598-41.175c0,0,2.681-1.249,2.468-2.759c-0.213-1.51-3.26-2.856-3.26-2.856
			l-61.171-35.246c0,0-1.944-1.181-4.124-1.146s-4.363,1.28-4.363,1.28l-70.598,40.674c0,0-2.528,1.384-2.932,3.303
			S1049.346,79.174,1049.346,79.174z"/>
		<path id="Path-43_18_" class="st2" d="M1049.346,74.174l60.514,35.079c0,0,2.915,1.837,5.969,1.784
			c3.054-0.053,5.954-1.992,5.954-1.992l69.598-41.175c0,0,2.372-1.374,2.468-2.759c0.096-1.384-0.09-5.731-0.09-5.731
			l-64.342-32.371c0,0-1.944-1.181-4.124-1.146s-4.363,1.28-4.363,1.28l-73.585,38.583c0,0-0.032,3.598,0.055,5.394
			C1047.489,72.918,1049.346,74.174,1049.346,74.174z"/>
		<path id="Path-43_17_" class="st3" d="M1049.346,68.174l60.514,35.079c0,0,2.915,1.837,5.969,1.784
			c3.054-0.053,5.954-1.992,5.954-1.992l69.598-41.175c0,0,2.681-1.249,2.468-2.759c-0.213-1.51-3.26-2.856-3.26-2.856
			l-61.171-35.246c0,0-1.944-1.181-4.124-1.146s-4.363,1.28-4.363,1.28l-70.598,40.674c0,0-2.528,1.384-2.932,3.303
			C1046.998,67.041,1049.346,68.174,1049.346,68.174z"/>
		<path id="Path-43_15_" class="st1" d="M1105.876,42.51l48.32,27.231c0,0,2.915,1.837,5.969,1.784s5.954-1.992,5.954-1.992
			l12.551-7.641c0,0,2.681-1.249,2.468-2.759s-3.26-2.856-3.26-2.856l-49.37-27.59c0,0-1.944-1.181-4.124-1.146
			s-4.363,1.28-4.363,1.28l-13.158,7.333c0,0-2.528,1.384-2.932,3.303S1105.876,42.51,1105.876,42.51z"/>
		<path id="Path-43_14_" class="st3" d="M1105.876,37.51l48.32,27.231c0,0,2.915,1.837,5.969,1.784s5.954-1.992,5.954-1.992
			l12.551-7.641c0,0,2.425-1.299,2.468-2.759s-0.007-4.335-0.007-4.335l-52.623-26.111c0,0-1.944-1.181-4.124-1.146
			s-4.363,1.28-4.363,1.28l-16.111,6.601c0,0-0.005,2.223,0.021,4.036C1103.957,36.27,1105.876,37.51,1105.876,37.51z"/>
		<path id="Path-43_13_" class="st3" d="M1105.876,32.51l48.32,27.231c0,0,2.915,1.837,5.969,1.784
			c3.054-0.053,5.954-1.992,5.954-1.992l12.551-7.641c0,0,2.681-1.249,2.468-2.759s-3.26-2.856-3.26-2.856l-49.37-27.59
			c0,0-1.944-1.181-4.124-1.146s-4.363,1.28-4.363,1.28l-13.158,7.333c0,0-2.528,1.384-2.932,3.303S1105.876,32.51,1105.876,32.51z"
			/>
		<path id="Path-43_11_" class="st1" d="M1062.144,68.118l48.32,27.231c0,0,2.915,1.837,5.969,1.784
			c3.054-0.053,5.954-1.992,5.954-1.992l27.901-16.605c0,0,2.681-1.249,2.468-2.759c-0.213-1.51-3.26-2.856-3.26-2.856l-49.37-27.59
			c0,0-1.944-1.181-4.124-1.146c-2.18,0.034-4.363,1.28-4.363,1.28l-28.508,16.298c0,0-2.528,1.384-2.932,3.303
			C1059.795,66.984,1062.144,68.118,1062.144,68.118z"/>
		<path id="Path-43_10_" class="st3" d="M1062.144,63.118l48.32,27.231c0,0,2.915,1.837,5.969,1.784
			c3.054-0.053,5.954-1.992,5.954-1.992l27.901-16.605c0,0,2.408-1.281,2.468-2.759c0.061-1.478,0.001-5.386,0.001-5.386
			l-52.631-25.06c0,0-1.944-1.181-4.124-1.146c-2.18,0.034-4.363,1.28-4.363,1.28l-31.41,14.612c0,0,0.033,3.009-0.03,4.989
			C1060.136,62.045,1062.144,63.118,1062.144,63.118z"/>
		<path id="Path-43_7_" class="st3" d="M1062.144,57.118l48.32,27.231c0,0,2.915,1.837,5.969,1.784
			c3.054-0.053,5.954-1.992,5.954-1.992l27.901-16.605c0,0,2.681-1.249,2.468-2.759c-0.213-1.51-3.26-2.856-3.26-2.856l-49.37-27.59
			c0,0-1.944-1.181-4.124-1.146c-2.18,0.034-4.363,1.28-4.363,1.28l-28.508,16.298c0,0-2.528,1.384-2.932,3.303
			C1059.795,55.984,1062.144,57.118,1062.144,57.118z"/>
		<path id="Path-255" class="st4" d="M1070.785,50.901l20.936-12.649c0,0,2.414-1.705,4.269-1.705c1.855,0,3.83,1.345,3.83,1.345
			l7.304,4.127"/>
		<path id="Path-255_3_" class="st4" d="M1113.742,26.39l6.132-3.719c0,0,2.414-1.705,4.269-1.705s3.83,1.345,3.83,1.345
			l7.304,4.127"/>
	</g>
</g>
<g>
	<g id="Group-5" transform="translate(127.268797, 76.112987)">
		<polygon id="Path-3" class="st1" points="1205.848,-6.405 1221.787,-15.628 1237.658,-6.49 1221.778,3.046 		"/>
		<g id="Group" transform="translate(1.000000, 0.000000)">
			<polygon id="Path-3_1_" class="st2" points="1205.161,-11.227 1205.161,-14.898 1220.786,-20.268 1236.344,-15.181 
				1236.344,-11.31 1220.778,-1.963 			"/>
			<polygon id="Path-3_2_" class="st2" points="1205.161,-15.086 1220.786,-24.128 1236.344,-15.17 1220.778,-5.822 			"/>
			<path id="Path-2" class="st2" d="M1220.716-6.01v3.974"/>
		</g>
	</g>
	<g id="Group-4" transform="translate(98.000000, 83.000000)">
		<polygon id="Path-5" class="st1" points="1227.708,-14.257 1219.828,-0.422 1204.289,-9.612 		"/>
		<g id="Group-3">
			<polygon id="Path-5_1_" class="st2" points="1204.289,-19.039 1227.708,-23.767 1227.708,-18.653 1219.828,-4.817 
				1204.289,-14.007 			"/>
			<polygon id="Path-5_2_" class="st2" points="1227.708,-23.876 1219.828,-10.041 1204.289,-19.231 			"/>
			<path id="Path-7" class="st2" d="M1219.731-9.282v4.262"/>
		</g>
	</g>
	<g id="Group-6" transform="translate(105.000000, 63.000000)">
		<path id="Path-4" class="st1" d="M1209.791-14.074c4.262-2.407,12.549-2.429,16.715-0.013s4.229,7.03-0.006,9.668
			s-12.642,2.447-16.826,0.001C1205.49-6.863,1205.529-11.667,1209.791-14.074z"/>
		<g id="Group-2" transform="translate(0.944613, 0.873658)">
			<path id="Path-4_1_" class="st2" d="M1208.847-19.343c4.262-2.407,12.549-2.429,16.715-0.013c4.165,2.416,4.229,7.03-0.006,9.668
				s-12.642,2.447-16.826,0.001S1204.584-16.936,1208.847-19.343z"/>
			<path id="Path-4_2_" class="st2" d="M1208.847-23.522c4.262-2.407,12.549-2.429,16.715-0.013c4.165,2.416,4.229,7.03-0.006,9.668
				s-12.642,2.447-16.826,0.001S1204.584-21.115,1208.847-23.522z"/>
			<path id="Path-6" class="st2" d="M1228.701-18.202v4.038"/>
			<path id="Path-6_1_" class="st2" d="M1205.658-18.202v4.038"/>
		</g>
	</g>
</g>
<rect x="1442" y="-0.015" class="st5" width="187" height="121"/>
<g id="Page-1_3_">
	<g id="introduction_3_">
		<path id="Path-43_22_" class="st1" d="M1463.346,80.188l60.514,35.079c0,0,2.915,1.837,5.969,1.784
			c3.054-0.053,5.954-1.992,5.954-1.992l69.598-41.175c0,0,2.681-1.249,2.468-2.759c-0.213-1.51-3.26-2.856-3.26-2.856
			l-61.171-35.246c0,0-1.944-1.181-4.124-1.146s-4.363,1.28-4.363,1.28l-70.598,40.674c0,0-2.528,1.384-2.932,3.303
			S1463.346,80.188,1463.346,80.188z"/>
		<path id="Path-43_21_" class="st2" d="M1463.346,75.188l60.514,35.079c0,0,2.915,1.837,5.969,1.784
			c3.054-0.053,5.954-1.992,5.954-1.992l69.598-41.175c0,0,2.372-1.374,2.468-2.759c0.096-1.384-0.09-5.731-0.09-5.731
			l-64.342-32.371c0,0-1.944-1.181-4.124-1.146s-4.363,1.28-4.363,1.28l-73.585,38.583c0,0-0.032,3.598,0.055,5.394
			C1461.489,73.932,1463.346,75.188,1463.346,75.188z"/>
		<path id="Path-43_8_" class="st3" d="M1463.346,69.188l60.514,35.079c0,0,2.915,1.837,5.969,1.784
			c3.054-0.053,5.954-1.992,5.954-1.992l69.598-41.175c0,0,2.681-1.249,2.468-2.759c-0.213-1.51-3.26-2.856-3.26-2.856
			l-61.171-35.246c0,0-1.944-1.181-4.124-1.146s-4.363,1.28-4.363,1.28l-70.598,40.674c0,0-2.528,1.384-2.932,3.303
			C1460.998,68.054,1463.346,69.188,1463.346,69.188z"/>
		<path id="Path-255_4_" class="st4" d="M1513.974,38.55l20.936-12.649c0,0,2.414-1.705,4.269-1.705c1.855,0,3.83,1.345,3.83,1.345
			l7.304,4.127"/>
	</g>
</g>
<g>
	<path class="st6" d="M1522.842,59.956c0-1.908,3.816-3.339,8.587-3.339c4.771,0,8.586,1.908,8.586,3.816
		c0,1.908-3.816,3.816-8.586,3.339C1526.658,63.772,1522.842,62.341,1522.842,59.956"/>
	<path class="st6" d="M1549.078,52.8c0-2.385,3.816-3.816,8.587-3.339c4.771,0,8.587,1.431,8.587,3.816
		c0,1.908-3.816,3.339-8.587,3.339C1552.895,56.139,1549.078,54.708,1549.078,52.8"/>
	<path class="st6" d="M1540.492,79.991c0-2.385,3.816-3.816,8.587-3.816s8.587,1.431,8.587,3.339c0,1.908-3.816,3.816-8.587,3.816
		S1540.492,81.899,1540.492,79.991"/>
	<path class="st6" d="M1513.778,83.331c0-1.908,3.816-3.339,8.587-3.339c4.771,0,8.587,1.431,8.587,3.339
		c0,1.908-3.816,3.816-8.587,3.816C1517.594,87.147,1513.778,85.239,1513.778,83.331"/>
	<line class="st7" x1="1557.666" y1="45.644" x2="1532.382" y2="53.754"/>
	<line class="st7" x1="1558.142" y1="46.121" x2="1549.078" y2="73.313"/>
	
		<ellipse transform="matrix(0.5954 -0.8035 0.8035 0.5954 568.6476 1273.8356)" class="st8" cx="1549.002" cy="72.358" rx="7.512" ry="7.513"/>
	
		<ellipse transform="matrix(0.5954 -0.8035 0.8035 0.5954 568.6476 1273.8356)" class="st9" cx="1549.002" cy="72.358" rx="7.512" ry="7.513"/>
	
		<ellipse transform="matrix(0.5954 -0.8035 0.8035 0.5954 593.8939 1270.1938)" class="st10" cx="1558.01" cy="45.472" rx="7.512" ry="7.512"/>
	
		<ellipse transform="matrix(0.5954 -0.8035 0.8035 0.5954 593.8939 1270.1938)" class="st9" cx="1558.01" cy="45.472" rx="7.512" ry="7.512"/>
	<line class="st11" x1="1532.382" y1="52.8" x2="1522.365" y2="76.175"/>
	<line class="st11" x1="1532.382" y1="52.8" x2="1501.852" y2="61.864"/>
	
		<ellipse transform="matrix(0.5954 -0.8035 0.8035 0.5954 577.4217 1252.5754)" class="st10" cx="1532.283" cy="53.016" rx="7.512" ry="7.512"/>
	
		<ellipse transform="matrix(0.5954 -0.8035 0.8035 0.5954 577.4217 1252.5754)" class="st9" cx="1532.283" cy="53.016" rx="7.512" ry="7.512"/>
	<path class="st10" d="M1529.997,48.507L1529.997,48.507z M1529.997,48.507c0.477-0.477,3.339-0.954,4.293,0.477L1529.997,48.507z"
		/>
	<path class="st12" d="M1529.997,48.507L1529.997,48.507z M1529.997,48.507c0.477-0.477,3.339-0.954,4.293,0.477"/>
	
		<ellipse transform="matrix(0.5954 -0.8035 0.8035 0.5954 555.0247 1253.9814)" class="st10" cx="1522.457" cy="75.966" rx="7.552" ry="7.552"/>
	
		<ellipse transform="matrix(0.5954 -0.8035 0.8035 0.5954 555.0247 1253.9814)" class="st13" cx="1522.457" cy="75.966" rx="7.552" ry="7.552"/>
	<path class="st10" d="M1520.457,70.928L1520.457,70.928z M1520.457,71.405c0.477-0.954,3.339-1.431,4.293,0H1520.457z"/>
	<path class="st12" d="M1520.457,70.928L1520.457,70.928z M1520.457,71.405c0.477-0.954,3.339-1.431,4.293,0"/>
	<path class="st8" d="M1547.171,67.588L1547.171,67.588z M1546.693,68.065c0.954-0.954,3.339-1.431,4.77,0H1546.693z"/>
	<path class="st12" d="M1547.171,67.588L1547.171,67.588z M1546.693,68.065c0.954-0.954,3.339-1.431,4.77,0"/>
	<path class="st10" d="M1556.234,40.874L1556.234,40.874z M1555.757,40.874c0.954-0.477,3.339-0.954,4.771,0.477L1555.757,40.874z"
		/>
	<path class="st12" d="M1556.234,40.874L1556.234,40.874z M1555.757,40.874c0.954-0.477,3.339-0.954,4.771,0.477"/>
	<path class="st6" d="M1493.265,69.019c0-1.908,3.816-3.339,8.587-3.339c4.77-0.477,8.587,1.431,8.587,3.339
		c0,1.908-3.816,3.816-8.587,3.816S1493.265,70.927,1493.265,69.019"/>
	
		<ellipse transform="matrix(0.5954 -0.8035 0.8035 0.5954 558.1397 1231.5465)" class="st10" cx="1501.772" cy="61.642" rx="7.552" ry="7.552"/>
	
		<ellipse transform="matrix(0.5954 -0.8035 0.8035 0.5954 558.1397 1231.5465)" class="st13" cx="1501.772" cy="61.642" rx="7.552" ry="7.552"/>
	<path class="st10" d="M1499.944,56.616L1499.944,56.616z M1499.467,57.093c0.954-0.954,3.816-1.431,4.77,0H1499.467z"/>
	<path class="st12" d="M1499.944,56.616L1499.944,56.616z M1499.467,57.093c0.954-0.954,3.816-1.431,4.77,0"/>
</g>
<path class="st5" d="M368.291,302.419"/>
<path class="st5" d="M226,302.419"/>
<path class="st5" d="M368.291,396"/>
<rect x="1649" class="st5" width="187" height="121"/>
<g id="Page-1_4_">
	<g id="introduction_4_">
		<path id="Path-43_26_" class="st1" d="M1670.346,80.202l60.514,35.079c0,0,2.915,1.837,5.969,1.784
			c3.054-0.053,5.954-1.992,5.954-1.992l69.598-41.175c0,0,2.681-1.249,2.468-2.759c-0.213-1.51-3.26-2.856-3.26-2.856
			l-61.171-35.246c0,0-1.944-1.181-4.124-1.146s-4.363,1.28-4.363,1.28l-70.598,40.674c0,0-2.528,1.384-2.932,3.303
			S1670.346,80.202,1670.346,80.202z"/>
		<path id="Path-43_25_" class="st2" d="M1670.346,75.202l60.514,35.079c0,0,2.915,1.837,5.969,1.784
			c3.054-0.053,5.954-1.992,5.954-1.992l69.598-41.175c0,0,2.372-1.374,2.468-2.759c0.096-1.384-0.09-5.731-0.09-5.731
			l-64.342-32.371c0,0-1.944-1.181-4.124-1.146s-4.363,1.28-4.363,1.28l-73.585,38.583c0,0-0.032,3.598,0.055,5.394
			C1668.489,73.946,1670.346,75.202,1670.346,75.202z"/>
		<path id="Path-43_24_" class="st3" d="M1670.346,69.202l60.514,35.079c0,0,2.915,1.837,5.969,1.784
			c3.054-0.053,5.954-1.992,5.954-1.992l69.598-41.175c0,0,2.681-1.249,2.468-2.759c-0.213-1.51-3.26-2.856-3.26-2.856
			l-61.171-35.246c0,0-1.944-1.181-4.124-1.146s-4.363,1.28-4.363,1.28l-70.598,40.674c0,0-2.528,1.384-2.932,3.303
			C1667.998,68.069,1670.346,69.202,1670.346,69.202z"/>
		<path id="Path-255_5_" class="st4" d="M1720.974,38.565l20.936-12.649c0,0,2.414-1.705,4.269-1.705c1.855,0,3.83,1.345,3.83,1.345
			l7.304,4.127"/>
	</g>
</g>
<g>
	<g>
		<defs>
			<rect id="SVGID_1_" x="1699.534" y="33.704" width="88.031" height="60.631"/>
		</defs>
		<clipPath id="SVGID_2_">
			<use xlink:href="#SVGID_1_"  style="overflow:visible;"/>
		</clipPath>
		<path class="st14" d="M1702.998,67.959c13.511,7.971,27.018,15.941,40.549,23.877c0,0,2.336,1.473,4.783,1.43
			c2.448-0.043,4.771-1.596,4.771-1.596l31.381-19.07c0,0,2.149-1.001,1.978-2.211c-0.171-1.21-2.612-2.288-2.612-2.288
			c-14.161-7.647-27.439-15.42-41.381-23.596c0,0-1.558-0.946-3.305-0.919c-1.747,0.028-3.496,1.026-3.496,1.026l-31.876,18.253
			c0,0-2.026,1.109-2.35,2.647C1701.116,67.05,1702.998,67.959,1702.998,67.959"/>
		<path class="st15" d="M1702.998,63.952l39.775,23.971c0,0,2.336,1.472,4.783,1.429c2.447-0.042,4.771-1.596,4.771-1.596
			l31.39-18.499c0,0,1.991-0.997,1.978-2.211c-0.009-0.815,0-3.891,0-3.891l-43.23-22.656c0,0-1.558-0.946-3.305-0.919
			c-1.747,0.028-3.496,1.026-3.496,1.026l-34.226,17.452c0,0-0.016,1.934,0,3.448C1701.456,63.019,1702.998,63.952,1702.998,63.952z
			"/>
		<path class="st16" d="M1702.998,63.952l39.775,23.971c0,0,2.336,1.472,4.783,1.429c2.447-0.042,4.771-1.596,4.771-1.596
			l31.39-18.499c0,0,1.991-0.997,1.978-2.211c-0.009-0.815,0-3.891,0-3.891l-43.23-22.656c0,0-1.558-0.946-3.305-0.919
			c-1.747,0.028-3.496,1.026-3.496,1.026l-34.226,17.452c0,0-0.016,1.934,0,3.448C1701.456,63.019,1702.998,63.952,1702.998,63.952z
			"/>
		<path class="st15" d="M1702.998,59.945l39.746,23.949c0,0,2.336,1.472,4.783,1.43c2.448-0.043,4.771-1.596,4.771-1.596l31.39-18.5
			c0,0,2.149-1.001,1.978-2.211c-0.171-1.21-2.613-2.289-2.613-2.289l-40.588-24.237c0,0-1.558-0.946-3.305-0.918
			c-1.747,0.027-3.496,1.025-3.496,1.025l-31.876,18.253c0,0-2.026,1.109-2.35,2.647
			C1701.116,59.037,1702.998,59.945,1702.998,59.945z"/>
		<path class="st16" d="M1702.998,59.945l39.746,23.949c0,0,2.336,1.472,4.783,1.43c2.448-0.043,4.771-1.596,4.771-1.596l31.39-18.5
			c0,0,2.149-1.001,1.978-2.211c-0.171-1.21-2.613-2.289-2.613-2.289l-40.588-24.237c0,0-1.558-0.946-3.305-0.918
			c-1.747,0.027-3.496,1.025-3.496,1.025l-31.876,18.253c0,0-2.026,1.109-2.35,2.647
			C1701.116,59.037,1702.998,59.945,1702.998,59.945z"/>
		<polygon class="st14" points="1747.29,66.792 1759.516,59.718 1771.689,66.727 1759.509,74.042 		"/>
		<polygon class="st17" points="1747.53,63.094 1747.53,60.278 1759.515,56.159 1771.448,60.061 1771.448,63.03 1759.509,70.2 		"/>
		<polygon class="st16" points="1747.53,63.094 1747.53,60.278 1759.515,56.159 1771.448,60.061 1771.448,63.03 1759.509,70.2 		"/>
		<polygon class="st17" points="1747.53,60.133 1759.515,53.199 1771.448,60.07 1759.509,67.239 		"/>
		<polygon class="st16" points="1747.53,60.133 1759.515,53.199 1771.448,60.07 1759.509,67.239 		"/>
		<path class="st17" d="M1759.461,67.095L1759.461,67.095z M1759.461,67.095v3.048"/>
		<path class="st16" d="M1759.461,67.095L1759.461,67.095z M1759.461,67.095v3.048"/>
		<polygon class="st14" points="1741.608,66.052 1735.564,76.664 1723.644,69.615 		"/>
		<polygon class="st17" points="1723.644,62.384 1741.608,58.758 1741.608,62.68 1735.564,73.293 1723.644,66.244 		"/>
		<polygon class="st16" points="1723.644,62.384 1741.608,58.758 1741.608,62.68 1735.564,73.293 1723.644,66.244 		"/>
		<polygon class="st17" points="1741.608,58.674 1735.564,69.286 1723.644,62.237 		"/>
		<polygon class="st16" points="1741.608,58.674 1735.564,69.286 1723.644,62.237 		"/>
		<path class="st17" d="M1735.489,69.868L1735.489,69.868z M1735.489,69.868v3.269"/>
		<path class="st16" d="M1735.489,69.868L1735.489,69.868z M1735.489,69.868v3.269"/>
		<path class="st18" d="M1719.036,49.599l16.776-10.136c0,0,1.935-1.366,3.421-1.366c1.486,0,3.069,1.078,3.069,1.078l5.853,3.307"
			/>
		<path class="st14" d="M1733.234,50.852c3.269-1.846,9.626-1.863,12.821-0.01c3.195,1.853,3.244,5.392-0.005,7.416
			c-3.248,2.023-9.696,1.876-12.906,0.001C1729.935,56.383,1729.964,52.699,1733.234,50.852"/>
		<path class="st17" d="M1733.234,47.481c3.269-1.846,9.626-1.863,12.821-0.01c3.195,1.853,3.244,5.392-0.005,7.416
			c-3.248,2.024-9.696,1.876-12.906,0.001S1729.964,49.327,1733.234,47.481z"/>
		<path class="st16" d="M1733.234,47.481c3.269-1.846,9.626-1.863,12.821-0.01c3.195,1.853,3.244,5.392-0.005,7.416
			c-3.248,2.024-9.696,1.876-12.906,0.001S1729.964,49.327,1733.234,47.481z"/>
		<path class="st17" d="M1733.234,44.276c3.269-1.846,9.626-1.864,12.821-0.01c3.195,1.853,3.244,5.392-0.005,7.416
			c-3.248,2.024-9.696,1.877-12.906,0.001C1729.935,49.807,1729.964,46.122,1733.234,44.276z"/>
		<path class="st16" d="M1733.234,44.276c3.269-1.846,9.626-1.864,12.821-0.01c3.195,1.853,3.244,5.392-0.005,7.416
			c-3.248,2.024-9.696,1.877-12.906,0.001C1729.935,49.807,1729.964,46.122,1733.234,44.276z"/>
		<path class="st17" d="M1748.463,48.356L1748.463,48.356z M1748.463,48.356v3.097"/>
		<path class="st16" d="M1748.463,48.356L1748.463,48.356z M1748.463,48.356v3.097"/>
		<path class="st17" d="M1730.788,48.356L1730.788,48.356z M1730.788,48.356v3.097"/>
		<path class="st16" d="M1730.788,48.356L1730.788,48.356z M1730.788,48.356v3.097"/>
	</g>
</g>
<g>
	<g>
		<defs>
			<rect id="SVGID_3_" x="817.862" y="433.293" width="177.591" height="74.344"/>
		</defs>
		<clipPath id="SVGID_4_">
			<use xlink:href="#SVGID_3_"  style="overflow:visible;"/>
		</clipPath>
		<path class="st19" d="M891.56,459.721l-4.388,23.457l-23.008,0.054L891.56,459.721z M853.876,504.534l2.149-3.176
			c-3.293-0.243-4.073-0.407-5.354-0.822c-1.781-0.663-2.157-2.415-0.856-4.337c0.961-1.421,3.045-3.512,6.87-6.691l3.318-2.761
			l26.582-0.062l-1.875,10.351c-0.29,1.419-0.35,1.837-0.69,2.338c-0.961,1.421-3.143,1.842-10.906,1.944l-2.149,3.176l30.045-0.071
			l2.149-3.176c-3.35-0.159-4.41-0.24-5.413-0.404c-1.895-0.496-1.947-0.913-1.301-4.67l8.676-48.416l-4.579,0.011l-49.78,42.087
			c-10.912,9.204-14.167,11.048-21.208,11.564l-2.149,3.177L853.876,504.534z"/>
		<path class="st20" d="M889.145,455.517l-0.257,19.529l-23.009,0.054L889.145,455.517z M851.461,500.33l2.149-3.176l-4.383-7.631
			c0,0-3.129,4.395-1.828,2.472c0.962-1.42,3.046-3.511,6.87-6.691l3.318-2.761l26.582-0.062l-2.418,9.057
			c-0.292,1.419-9.661,1.3-17.424,1.402l4.221,7.35l30.045-0.07l2.149-3.176l-4.325-7.53c0,0-3.035,6.212-2.389,2.456l8.676-48.417
			l-4.027-7.011l-53.462,43.839c-10.912,9.204-24.212,13.073-24.212,13.073l3.985,6.939L851.461,500.33z"/>
		<path class="st21" d="M889.145,455.517l-0.257,19.529l-23.009,0.054L889.145,455.517z M851.461,500.33l2.149-3.176l-4.383-7.631
			c0,0-3.129,4.395-1.828,2.472c0.962-1.42,3.046-3.511,6.87-6.691l3.318-2.761l26.582-0.062l-2.418,9.057
			c-0.292,1.419-9.661,1.3-17.424,1.402l4.221,7.35l30.045-0.07l2.149-3.176l-4.325-7.53c0,0-3.035,6.212-2.389,2.456l8.676-48.417
			l-4.027-7.011l-53.462,43.839c-10.912,9.204-24.212,13.073-24.212,13.073l3.985,6.939L851.461,500.33z"/>
		<path class="st20" d="M884.918,448.158l-4.387,23.457l-23.008,0.054L884.918,448.158z M847.234,492.971l2.149-3.176
			c-3.293-0.243-4.073-0.407-5.354-0.822c-1.781-0.663-2.157-2.414-0.856-4.337c0.961-1.421,3.045-3.512,6.869-6.692l3.318-2.761
			l26.582-0.062l-1.875,10.352c-0.291,1.419-0.35,1.836-0.69,2.338c-0.961,1.421-3.143,1.843-10.906,1.944l-2.149,3.176l30.045-0.07
			l2.149-3.176c-3.349-0.159-4.41-0.24-5.413-0.405c-1.895-0.496-1.947-0.913-1.301-4.669l8.676-48.416l-4.58,0.01l-49.779,42.088
			c-10.912,9.204-14.167,11.048-21.208,11.564l-2.149,3.176L847.234,492.971z"/>
		<path class="st21" d="M884.918,448.158l-4.387,23.457l-23.008,0.054L884.918,448.158z M847.234,492.971l2.149-3.176
			c-3.293-0.243-4.073-0.407-5.354-0.822c-1.781-0.663-2.157-2.414-0.856-4.337c0.961-1.421,3.045-3.512,6.869-6.692l3.318-2.761
			l26.582-0.062l-1.875,10.352c-0.291,1.419-0.35,1.836-0.69,2.338c-0.961,1.421-3.143,1.843-10.906,1.944l-2.149,3.176l30.045-0.07
			l2.149-3.176c-3.349-0.159-4.41-0.24-5.413-0.405c-1.895-0.496-1.947-0.913-1.301-4.669l8.676-48.416l-4.58,0.01l-49.779,42.088
			c-10.912,9.204-14.167,11.048-21.208,11.564l-2.149,3.176L847.234,492.971z"/>
		<path class="st20" d="M853.508,475.648L853.508,475.648z M853.508,475.648l3.915,6.817"/>
		<path class="st21" d="M853.508,475.648L853.508,475.648z M853.508,475.648l3.915,6.817"/>
		<path class="st20" d="M846.964,493.387L846.964,493.387z M846.964,493.387l4.067,7.081"/>
		<path class="st21" d="M846.964,493.387L846.964,493.387z M846.964,493.387l4.067,7.081"/>
		<path class="st20" d="M894.063,492.897L894.063,492.897z M894.063,492.897l4.116,7.166"/>
		<path class="st21" d="M894.063,492.897L894.063,492.897z M894.063,492.897l4.116,7.166"/>
		<path class="st19" d="M980.204,461.073l-4.388,23.457l-23.008,0.054L980.204,461.073z M942.52,505.886l2.149-3.176
			c-3.293-0.243-4.073-0.407-5.354-0.822c-1.781-0.663-2.157-2.415-0.857-4.337c0.961-1.421,3.045-3.512,6.87-6.691l3.318-2.761
			l26.582-0.062l-1.875,10.351c-0.291,1.419-0.35,1.837-0.69,2.338c-0.961,1.421-3.142,1.842-10.906,1.944l-2.149,3.176
			l30.045-0.071l2.149-3.176c-3.35-0.159-4.41-0.24-5.413-0.404c-1.895-0.496-1.947-0.913-1.301-4.67l8.676-48.416l-4.579,0.011
			l-49.78,42.087c-10.912,9.204-14.167,11.048-21.208,11.564l-2.149,3.177L942.52,505.886z"/>
		<path class="st22" d="M977.789,456.869l-0.257,19.529l-23.009,0.054L977.789,456.869z M940.105,501.681l2.149-3.176l-4.383-7.631
			c0,0-3.129,4.395-1.828,2.472c0.962-1.42,3.045-3.512,6.87-6.691l3.318-2.761l26.582-0.063l-2.418,9.058
			c-0.292,1.419-9.661,1.3-17.424,1.402l4.221,7.35l30.046-0.07l2.149-3.176l-4.325-7.53c0,0-3.035,6.212-2.389,2.456l8.676-48.416
			l-4.027-7.011l-53.462,43.839c-10.911,9.204-24.211,13.073-24.211,13.073l3.985,6.939L940.105,501.681z"/>
		<path class="st21" d="M977.789,456.869l-0.257,19.529l-23.009,0.054L977.789,456.869z M940.105,501.681l2.149-3.176l-4.383-7.631
			c0,0-3.129,4.395-1.828,2.472c0.962-1.42,3.045-3.512,6.87-6.691l3.318-2.761l26.582-0.063l-2.418,9.058
			c-0.292,1.419-9.661,1.3-17.424,1.402l4.221,7.35l30.046-0.07l2.149-3.176l-4.325-7.53c0,0-3.035,6.212-2.389,2.456l8.676-48.416
			l-4.027-7.011l-53.462,43.839c-10.911,9.204-24.211,13.073-24.211,13.073l3.985,6.939L940.105,501.681z"/>
		<path class="st22" d="M973.563,449.51l-4.388,23.457l-23.008,0.054L973.563,449.51z M935.878,494.323l2.149-3.176
			c-3.293-0.243-4.073-0.408-5.354-0.822c-1.781-0.663-2.157-2.415-0.856-4.337c0.961-1.421,3.045-3.512,6.87-6.692l3.318-2.761
			l26.582-0.062l-1.875,10.351c-0.29,1.419-0.35,1.836-0.69,2.338c-0.961,1.421-3.143,1.843-10.906,1.945l-2.149,3.176l30.045-0.07
			l2.149-3.175c-3.349-0.16-4.41-0.24-5.413-0.405c-1.895-0.496-1.947-0.913-1.301-4.669l8.676-48.417l-4.58,0.011l-49.779,42.088
			c-10.912,9.204-14.167,11.048-21.208,11.565l-2.149,3.175L935.878,494.323z"/>
		<path class="st21" d="M973.563,449.51l-4.388,23.457l-23.008,0.054L973.563,449.51z M935.878,494.323l2.149-3.176
			c-3.293-0.243-4.073-0.408-5.354-0.822c-1.781-0.663-2.157-2.415-0.856-4.337c0.961-1.421,3.045-3.512,6.87-6.692l3.318-2.761
			l26.582-0.062l-1.875,10.351c-0.29,1.419-0.35,1.836-0.69,2.338c-0.961,1.421-3.143,1.843-10.906,1.945l-2.149,3.176l30.045-0.07
			l2.149-3.175c-3.349-0.16-4.41-0.24-5.413-0.405c-1.895-0.496-1.947-0.913-1.301-4.669l8.676-48.417l-4.58,0.011l-49.779,42.088
			c-10.912,9.204-14.167,11.048-21.208,11.565l-2.149,3.175L935.878,494.323z"/>
		<path class="st20" d="M942.152,477L942.152,477z M942.152,477l3.916,6.817"/>
		<path class="st21" d="M942.152,477L942.152,477z M942.152,477l3.916,6.817"/>
		<path class="st20" d="M935.608,494.739L935.608,494.739z M935.608,494.739l4.068,7.082"/>
		<path class="st21" d="M935.608,494.739L935.608,494.739z M935.608,494.739l4.068,7.082"/>
		<path class="st20" d="M982.707,494.249L982.707,494.249z M982.707,494.249l4.116,7.166"/>
		<path class="st21" d="M982.707,494.249L982.707,494.249z M982.707,494.249l4.116,7.166"/>
	</g>
</g>
<path class="st23" d="M881.638,548.381l-4.375,23.391l-22.944,0.054L881.638,548.381z M844.06,593.068l2.143-3.167
	c-3.283-0.242-4.062-0.406-5.339-0.82c-1.776-0.661-2.151-2.408-0.854-4.324c0.958-1.417,3.037-3.502,6.851-6.673l3.309-2.754
	l26.507-0.062l-1.87,10.322c-0.29,1.415-0.349,1.831-0.688,2.332c-0.958,1.417-3.134,1.837-10.875,1.939l-2.143,3.167l29.96-0.071
	l2.143-3.167c-3.34-0.158-4.397-0.24-5.398-0.403c-1.89-0.495-1.942-0.911-1.297-4.657l8.652-48.28l-4.567,0.011l-49.639,41.969
	c-10.882,9.178-14.127,11.017-21.148,11.532l-2.143,3.168L844.06,593.068z"/>
<path class="st10" d="M879.23,544.188l-0.256,19.474l-22.944,0.053L879.23,544.188z M841.652,588.875l2.143-3.167l-4.371-7.61
	c0,0-3.12,4.382-1.823,2.465c0.959-1.416,3.037-3.502,6.851-6.672l3.309-2.754l26.508-0.062l-2.411,9.032
	c-0.291,1.415-9.634,1.297-17.375,1.398l4.21,7.329l29.96-0.07l2.143-3.167l-4.313-7.509c0,0-3.026,6.195-2.382,2.449l8.651-48.28
	l-4.016-6.992l-53.311,43.715c-10.881,9.178-24.144,13.036-24.144,13.036l3.974,6.919L841.652,588.875z"/>
<path class="st24" d="M815.255,590.145c-0.432,0-0.832-0.232-1.049-0.607l-3.975-6.92c-0.184-0.321-0.211-0.71-0.072-1.054
	s0.428-0.605,0.783-0.709c0.132-0.038,13.155-3.902,23.703-12.799l53.326-43.725c0.275-0.224,0.627-0.316,0.985-0.254
	c0.349,0.064,0.653,0.279,0.83,0.587l4.016,6.991c0.141,0.247,0.191,0.535,0.141,0.815l-7.979,44.527
	c0.146-0.071,0.309-0.11,0.477-0.117c0.483-0.015,0.867,0.219,1.089,0.607l4.313,7.508c0.23,0.4,0.212,0.896-0.046,1.279
	l-2.143,3.167c-0.224,0.332-0.599,0.531-0.998,0.531l-29.96,0.069c-0.365-0.008-0.834-0.23-1.052-0.607l-4.21-7.329
	c-0.212-0.372-0.214-0.829-0.002-1.2c0.212-0.373,0.607-0.605,1.034-0.61l2.976-0.031c4.738-0.043,11.802-0.109,13.323-0.755
	l1.927-7.222l-24.494,0.059l-2.975,2.473c-1.702,1.416-3.088,2.639-4.174,3.684l3.792,6.602c0.229,0.4,0.21,0.896-0.048,1.279
	l-2.143,3.167c-0.224,0.332-0.599,0.531-0.998,0.531l-26.396,0.061C815.257,590.145,815.257,590.145,815.255,590.145z
	 M813.075,582.712l2.879,5.014l25.055-0.058l1.362-2.013l-3.059-5.325c-0.37,0.511-0.666,0.909-0.913,1.212
	c-0.028,0.043-0.048,0.074-0.061,0.095l-0.01-0.008c-0.85,1.024-1.079,0.865-1.732,0.411c-0.99-0.687-0.319-1.679,0.003-2.156
	c0.23-0.339,0.51-0.704,0.844-1.097c0.314-0.437,0.663-0.926,0.995-1.391c0.189-0.266,0.475-0.441,0.789-0.493
	c1.154-1.123,2.626-2.424,4.451-3.942l3.309-2.753c0.215-0.181,0.488-0.28,0.77-0.28l26.508-0.063c0.002,0,0.002,0,0.003,0
	c0.375,0,0.728,0.174,0.959,0.472c0.229,0.298,0.306,0.686,0.209,1.049l-2.412,9.031c-0.38,1.866-3.473,2.153-15.56,2.263
	l-0.904,0.01l2.832,4.932l28.618-0.066l1.362-2.013l-2.837-4.937c-1.271,2.255-1.95,2.544-2.776,2.279
	c-1.222-0.395-0.97-1.853-0.85-2.555l8.576-47.855l-3.085-5.372l-52.209,42.81C827.241,577.465,816.857,581.431,813.075,582.712z
	 M870.699,579.767c-0.012,0.031-0.02,0.064-0.026,0.099L870.699,579.767z M856.031,564.924c-0.508,0-0.96-0.316-1.135-0.793
	c-0.176-0.479-0.033-1.013,0.357-1.34l23.2-19.528c0.362-0.306,0.867-0.372,1.296-0.168c0.428,0.202,0.697,0.635,0.691,1.108
	l-0.257,19.473c-0.008,0.659-0.546,1.191-1.205,1.192l-22.943,0.054C856.032,564.924,856.032,564.924,856.031,564.924z
	 M877.987,546.816l-18.633,15.683l18.426-0.043L877.987,546.816z"/>
<path class="st10" d="M875.015,536.851l-4.375,23.391l-22.944,0.054L875.015,536.851z M837.437,581.537l2.143-3.167
	c-3.284-0.242-4.062-0.406-5.339-0.82c-1.776-0.662-2.151-2.408-0.854-4.324c0.958-1.417,3.036-3.502,6.85-6.673l3.309-2.754
	l26.507-0.062l-1.869,10.322c-0.29,1.415-0.349,1.831-0.688,2.331c-0.958,1.417-3.134,1.838-10.875,1.939l-2.143,3.167l29.96-0.07
	l2.143-3.167c-3.34-0.159-4.397-0.239-5.398-0.404c-1.89-0.495-1.942-0.91-1.298-4.656l8.652-48.28l-4.567,0.01l-49.639,41.97
	c-10.881,9.178-14.127,11.016-21.148,11.532l-2.143,3.167L837.437,581.537z"/>
<path class="st24" d="M811.04,582.808c-0.447,0-0.857-0.247-1.067-0.641c-0.211-0.395-0.186-0.873,0.066-1.245l2.143-3.167
	c0.207-0.306,0.544-0.502,0.913-0.528c6.63-0.487,9.691-2.169,20.457-11.25l49.639-41.969c0.219-0.183,0.493-0.285,0.778-0.285
	l4.567-0.011c0.002,0,0.002,0,0.003,0c0.357,0,0.697,0.158,0.926,0.432c0.23,0.275,0.327,0.637,0.265,0.99l-8.651,48.281
	c-0.174,1.005-0.465,2.7-0.317,3.044l0.002-0.002c0.021,0,0.181,0.086,0.729,0.23c0.835,0.132,1.916,0.212,5.149,0.367
	c0.437,0.02,0.827,0.275,1.023,0.666c0.196,0.391,0.166,0.857-0.079,1.219l-2.143,3.166c-0.225,0.332-0.599,0.531-0.998,0.531
	l-29.96,0.071c-0.002,0-0.002,0-0.003,0c-0.447,0-0.857-0.247-1.067-0.641c-0.211-0.395-0.186-0.873,0.066-1.245l2.143-3.167
	c0.222-0.327,0.59-0.526,0.985-0.531c6.826-0.089,9.229-0.431,9.89-1.408c0.158-0.233,0.209-0.442,0.428-1.51l0.079-0.388
	l1.603-8.867l-24.619,0.059l-2.975,2.475c-3.504,2.914-5.67,5.014-6.622,6.42c-0.474,0.701-0.661,1.362-0.516,1.817
	c0.097,0.304,0.363,0.538,0.789,0.697c1.113,0.358,1.806,0.51,5.007,0.747c0.431,0.031,0.811,0.289,1,0.677
	c0.188,0.388,0.155,0.849-0.087,1.205l-2.143,3.167c-0.224,0.332-0.599,0.531-0.998,0.531l-26.396,0.063
	C811.042,582.808,811.042,582.808,811.04,582.808z M813.859,579.59l-0.538,0.796l23.473-0.056l0.628-0.929
	c-1.702-0.171-2.483-0.354-3.554-0.699c-1.176-0.437-1.973-1.228-2.299-2.245c-0.38-1.182-0.089-2.572,0.816-3.909
	c1.097-1.62,3.346-3.82,7.079-6.923l3.309-2.754c0.215-0.181,0.488-0.28,0.77-0.28l26.507-0.063
	c0.339-0.056,0.699,0.156,0.931,0.432c0.23,0.275,0.326,0.638,0.261,0.992l-1.952,10.733c-0.242,1.189-0.352,1.732-0.793,2.383
	c-1.314,1.944-3.993,2.348-11.228,2.462l-0.51,0.753l27.036-0.064l0.582-0.86c-1.781-0.1-2.59-0.179-3.389-0.311
	c-3.192-0.829-2.893-2.575-2.294-6.053l8.398-46.863l-2.677,0.007l-49.303,41.685C824.794,576.526,821.039,578.956,813.859,579.59z
	 M847.697,561.504c-0.505,0-0.957-0.314-1.133-0.788c-0.176-0.475-0.038-1.008,0.345-1.339l27.319-23.445
	c0.39-0.333,0.947-0.388,1.391-0.13c0.446,0.257,0.679,0.766,0.585,1.269l-4.376,23.39c-0.107,0.571-0.605,0.985-1.186,0.987
	l-22.943,0.054C847.698,561.504,847.698,561.504,847.697,561.504z M873.195,540.006l-22.224,19.073l18.664-0.044L873.195,540.006z"
	/>
<path class="st10" d="M843.693,564.263L843.693,564.263z M843.693,564.263l3.904,6.798"/>
<rect x="844.437" y="563.742" transform="matrix(0.8671 -0.4981 0.4981 0.8671 -170.387 496.7032)" class="st24" width="2.416" height="7.84"/>
<path class="st10" d="M837.168,581.952L837.168,581.952z M837.168,581.952l4.056,7.061"/>
<rect x="837.988" y="581.411" transform="matrix(0.8671 -0.4982 0.4982 0.8671 -180.1227 495.8731)" class="st24" width="2.416" height="8.144"/>
<path class="st10" d="M884.134,581.464L884.134,581.464z M884.134,581.464l4.104,7.146"/>
<rect x="884.978" y="580.917" transform="matrix(0.8671 -0.4981 0.4981 0.8671 -173.6512 519.1674)" class="st24" width="2.416" height="8.24"/>
<path class="st23" d="M970.632,549.198l-4.375,23.391l-22.944,0.054L970.632,549.198z M933.054,593.884l2.143-3.167
	c-3.284-0.242-4.062-0.406-5.339-0.82c-1.776-0.662-2.151-2.408-0.854-4.325c0.958-1.417,3.037-3.502,6.851-6.673l3.309-2.754
	l26.507-0.062l-1.87,10.322c-0.29,1.415-0.349,1.831-0.688,2.332c-0.958,1.417-3.134,1.837-10.875,1.939l-2.143,3.167l29.96-0.071
	l2.143-3.167c-3.34-0.158-4.398-0.24-5.398-0.403c-1.89-0.495-1.942-0.911-1.297-4.657l8.651-48.28l-4.567,0.011l-49.639,41.969
	c-10.882,9.178-14.127,11.017-21.148,11.532l-2.143,3.168L933.054,593.884z"/>
<path class="st8" d="M968.224,545.005l-0.256,19.474l-22.944,0.053L968.224,545.005z M930.646,589.692l2.143-3.167l-4.37-7.609
	c0,0-3.12,4.382-1.823,2.465c0.959-1.416,3.036-3.502,6.851-6.672l3.309-2.754l26.507-0.063l-2.411,9.032
	c-0.291,1.415-9.634,1.297-17.375,1.398l4.209,7.33l29.961-0.07l2.143-3.167l-4.313-7.509c0,0-3.026,6.195-2.383,2.449l8.652-48.28
	l-4.016-6.992l-53.312,43.715c-10.881,9.178-24.143,13.036-24.143,13.036l3.974,6.919L930.646,589.692z"/>
<path class="st24" d="M904.249,590.962c-0.432,0-0.832-0.232-1.049-0.607l-3.975-6.92c-0.184-0.321-0.21-0.71-0.072-1.054
	s0.428-0.605,0.783-0.709c0.132-0.038,13.155-3.902,23.703-12.799l53.326-43.726c0.273-0.224,0.627-0.317,0.985-0.254
	c0.349,0.064,0.653,0.279,0.83,0.587l4.016,6.992c0.141,0.247,0.191,0.535,0.141,0.815l-7.98,44.525
	c0.148-0.069,0.311-0.11,0.479-0.117c0.493,0.003,0.865,0.219,1.09,0.607l4.313,7.51c0.229,0.4,0.211,0.896-0.048,1.279
	l-2.143,3.167c-0.224,0.332-0.599,0.531-0.998,0.531l-29.962,0.069c-0.002,0-0.002,0-0.003,0c-0.432,0-0.832-0.232-1.049-0.607
	l-4.208-7.329c-0.212-0.372-0.214-0.829-0.002-1.2c0.212-0.373,0.607-0.605,1.034-0.61l3.011-0.031
	c4.724-0.044,11.769-0.11,13.289-0.755l1.926-7.224l-24.492,0.059l-2.975,2.475c-1.702,1.414-3.088,2.638-4.174,3.684l3.79,6.601
	c0.23,0.4,0.212,0.896-0.046,1.279l-2.143,3.167c-0.224,0.332-0.599,0.531-0.998,0.531l-26.396,0.062
	C904.251,590.962,904.251,590.962,904.249,590.962z M902.069,583.529l2.879,5.014l25.055-0.059l1.362-2.013l-3.059-5.323
	c-0.368,0.511-0.666,0.909-0.913,1.212c-0.028,0.043-0.048,0.074-0.061,0.095l-0.01-0.008c-0.85,1.024-1.079,0.865-1.732,0.411
	c-0.99-0.687-0.319-1.679,0.003-2.156c0.23-0.34,0.511-0.705,0.845-1.099c0.314-0.437,0.661-0.924,0.993-1.39
	c0.189-0.266,0.474-0.441,0.789-0.492c1.154-1.125,2.626-2.427,4.451-3.943l3.309-2.754c0.215-0.181,0.488-0.28,0.77-0.28
	l26.507-0.063c0.002,0,0.002,0,0.003,0c0.375,0,0.729,0.174,0.959,0.47c0.229,0.299,0.306,0.687,0.209,1.051l-2.411,9.033
	c-0.382,1.865-3.468,2.151-15.525,2.263l-0.941,0.01l2.832,4.932l28.62-0.066l1.362-2.013l-2.837-4.938
	c-1.268,2.25-1.945,2.544-2.777,2.279c-1.22-0.393-0.97-1.852-0.85-2.552l8.577-47.856l-3.085-5.372l-52.209,42.811
	C916.236,578.282,905.851,582.248,902.069,583.529z M974.214,582.196L974.214,582.196L974.214,582.196z M959.691,580.586
	c-0.01,0.03-0.018,0.061-0.025,0.095L959.691,580.586z M945.025,565.741c-0.508,0-0.96-0.316-1.135-0.793
	c-0.176-0.479-0.033-1.013,0.357-1.34l23.2-19.528c0.362-0.306,0.865-0.373,1.296-0.168c0.428,0.202,0.697,0.635,0.691,1.108
	l-0.257,19.473c-0.008,0.659-0.546,1.191-1.205,1.192l-22.943,0.054C945.026,565.741,945.026,565.741,945.025,565.741z
	 M966.981,547.633l-18.633,15.683l18.426-0.043L966.981,547.633z"/>
<path class="st8" d="M964.009,537.667l-4.375,23.391l-22.944,0.054L964.009,537.667z M926.431,582.354l2.143-3.167
	c-3.284-0.242-4.062-0.406-5.339-0.82c-1.776-0.662-2.151-2.408-0.854-4.324c0.959-1.417,3.037-3.502,6.85-6.673l3.309-2.754
	l26.508-0.062l-1.87,10.322c-0.29,1.415-0.349,1.831-0.688,2.331c-0.959,1.417-3.134,1.838-10.875,1.939l-2.143,3.167l29.96-0.07
	l2.143-3.166c-3.34-0.159-4.397-0.24-5.398-0.404c-1.889-0.494-1.942-0.911-1.297-4.656l8.651-48.28l-4.567,0.01l-49.639,41.969
	c-10.882,9.178-14.127,11.017-21.148,11.532l-2.143,3.167L926.431,582.354z"/>
<path class="st24" d="M900.035,583.625c-0.447,0-0.857-0.247-1.067-0.641c-0.21-0.395-0.186-0.873,0.066-1.245l2.143-3.167
	c0.207-0.306,0.544-0.502,0.913-0.528c6.634-0.488,9.692-2.171,20.457-11.251l49.637-41.968c0.219-0.183,0.493-0.285,0.778-0.285
	l4.568-0.011c0.002,0,0.002,0,0.003,0c0.357,0,0.697,0.158,0.926,0.432c0.23,0.275,0.327,0.637,0.265,0.99l-8.651,48.281
	c-0.174,1.005-0.465,2.703-0.317,3.045h0.002c0.021,0,0.181,0.086,0.727,0.229c0.837,0.132,1.917,0.212,5.15,0.367
	c0.437,0.02,0.827,0.275,1.023,0.666c0.196,0.391,0.166,0.857-0.079,1.219l-2.143,3.166c-0.225,0.332-0.599,0.531-0.998,0.531
	l-29.96,0.071c-0.002,0-0.002,0-0.003,0c-0.447,0-0.857-0.247-1.067-0.641c-0.211-0.395-0.186-0.873,0.066-1.245l2.143-3.167
	c0.222-0.327,0.59-0.526,0.985-0.531c6.826-0.09,9.229-0.432,9.89-1.408c0.158-0.234,0.21-0.442,0.428-1.515l0.077-0.382
	l1.605-8.868l-24.619,0.059l-2.975,2.473c-3.504,2.916-5.67,5.016-6.622,6.422c-0.474,0.701-0.661,1.362-0.516,1.817
	c0.097,0.304,0.363,0.538,0.789,0.697c1.113,0.359,1.806,0.51,5.007,0.747c0.431,0.031,0.811,0.289,1,0.677
	c0.187,0.388,0.155,0.849-0.087,1.205l-2.143,3.167c-0.224,0.332-0.599,0.531-0.998,0.531l-26.396,0.062
	C900.036,583.625,900.036,583.625,900.035,583.625z M902.853,580.408l-0.538,0.794l23.473-0.056l0.628-0.929
	c-1.702-0.171-2.483-0.354-3.554-0.699c-1.176-0.437-1.973-1.228-2.299-2.245c-0.38-1.182-0.089-2.572,0.816-3.909
	c1.097-1.62,3.346-3.82,7.079-6.925l3.309-2.753c0.215-0.181,0.488-0.28,0.77-0.28l26.507-0.063c0.002,0,0.002,0,0.003,0
	c0.358,0,0.697,0.158,0.927,0.432c0.23,0.275,0.326,0.638,0.261,0.992l-1.95,10.725c-0.242,1.194-0.352,1.738-0.794,2.391
	c-1.315,1.942-3.994,2.347-11.228,2.462l-0.51,0.753l27.036-0.064l0.582-0.86c-1.779-0.099-2.592-0.179-3.391-0.311
	c-3.19-0.829-2.891-2.575-2.292-6.055l8.398-46.862l-2.679,0.007l-49.302,41.684C913.261,577.789,909.681,579.815,902.853,580.408z
	 M936.691,562.321c-0.505,0-0.957-0.314-1.133-0.788c-0.176-0.475-0.038-1.008,0.345-1.339l27.319-23.445
	c0.391-0.333,0.947-0.388,1.391-0.13c0.446,0.257,0.679,0.766,0.585,1.27l-4.376,23.391c-0.107,0.571-0.605,0.985-1.186,0.987
	l-22.943,0.054C936.692,562.321,936.692,562.321,936.691,562.321z M962.189,540.822l-22.224,19.074l18.664-0.044L962.189,540.822z"
	/>
<path class="st10" d="M932.687,565.08L932.687,565.08z M932.687,565.08l3.905,6.798"/>
<rect x="933.431" y="564.559" transform="matrix(0.8671 -0.4981 0.4981 0.8671 -158.9659 541.1441)" class="st24" width="2.416" height="7.84"/>
<path class="st10" d="M926.162,582.768L926.162,582.768z M926.162,582.768l4.056,7.062"/>
<rect x="926.98" y="582.227" transform="matrix(0.8671 -0.4981 0.4981 0.8671 -168.696 540.2045)" class="st24" width="2.418" height="8.145"/>
<path class="st10" d="M973.128,582.28L973.128,582.28z M973.128,582.28l4.104,7.146"/>
<rect x="973.971" y="581.732" transform="matrix(0.8672 -0.498 0.498 0.8672 -162.2291 563.4922)" class="st24" width="2.419" height="8.241"/>
</svg>
