<?xml version="1.0" encoding="utf-8"?>
<!-- Generator: Adobe Illustrator 21.0.0, SVG Export Plug-In . SVG Version: 6.00 Build 0)  -->
<svg version="1.1" id="Слой_1" xmlns="http://www.w3.org/2000/svg" xmlns:xlink="http://www.w3.org/1999/xlink" x="0px" y="0px"
	 viewBox="0 0 187 121" style="enable-background:new 0 0 187 121;" xml:space="preserve">
<style type="text/css">
	.st0{fill:#FFFFFF;stroke:#0E0F0F;stroke-miterlimit:10;}
	.st1{fill:#5D5F62;fill-opacity:0.15;}
	.st2{fill:#FFFFFF;stroke:#5D5F62;stroke-width:2;stroke-linecap:round;stroke-linejoin:round;}
	.st3{fill:#FFFFFF;stroke:#5D5F62;stroke-width:2;stroke-linejoin:round;}
	.st4{fill:none;stroke:#5D5F62;stroke-linecap:round;stroke-linejoin:round;}
	.st5{fill:none;}
	.st6{fill:#5D5F62;fill-opacity:0.149;}
	.st7{fill:#5D5F62;}
	.st8{fill:#B3D1F1;}
	.st9{fill:#FFFFFF;}
</style>
<g>
	<rect x="-1442" y="0.335" class="st0" width="187" height="121"/>
	<g id="Page-1_1_">
		<g id="introduction_1_">
			<path id="Path-43_6_" class="st1" d="M-1420.654,80.538l60.514,35.079c0,0,2.915,1.837,5.969,1.784
				c3.054-0.053,5.954-1.992,5.954-1.992l69.598-41.175c0,0,2.681-1.249,2.468-2.759c-0.213-1.51-3.26-2.856-3.26-2.856
				l-61.171-35.246c0,0-1.944-1.181-4.124-1.146c-2.18,0.034-4.363,1.28-4.363,1.28l-70.598,40.674c0,0-2.528,1.384-2.932,3.303
				S-1420.654,80.538-1420.654,80.538z"/>
			<path id="Path-43_5_" class="st2" d="M-1420.654,75.538l60.514,35.079c0,0,2.915,1.837,5.969,1.784
				c3.054-0.053,5.954-1.992,5.954-1.992l69.598-41.175c0,0,2.372-1.374,2.468-2.759c0.096-1.384-0.09-5.731-0.09-5.731
				l-64.342-32.371c0,0-1.944-1.181-4.124-1.146s-4.363,1.28-4.363,1.28l-73.585,38.583c0,0-0.032,3.598,0.055,5.394
				C-1422.511,74.282-1420.654,75.538-1420.654,75.538z"/>
			<path id="Path-43_3_" class="st3" d="M-1420.654,69.538l60.514,35.079c0,0,2.915,1.837,5.969,1.784
				c3.054-0.053,5.954-1.992,5.954-1.992l69.598-41.175c0,0,2.681-1.249,2.468-2.759c-0.213-1.51-3.26-2.856-3.26-2.856
				l-61.171-35.246c0,0-1.944-1.181-4.124-1.146s-4.363,1.28-4.363,1.28l-70.598,40.674c0,0-2.528,1.384-2.932,3.303
				C-1423.002,68.404-1420.654,69.538-1420.654,69.538z"/>
			<path id="Path-255_1_" class="st4" d="M-1370.026,38.9l20.936-12.649c0,0,2.414-1.705,4.269-1.705c1.855,0,3.83,1.345,3.83,1.345
				l7.304,4.127"/>
		</g>
	</g>
</g>
<rect x="-207" class="st5" width="187" height="121"/>
<g id="Page-1_2_">
	<g id="introduction_2_">
		<path id="Path-43_4_" class="st1" d="M-185.654,79.174l60.514,35.079c0,0,2.915,1.837,5.969,1.784
			c3.054-0.053,5.954-1.992,5.954-1.992l69.598-41.175c0,0,2.681-1.249,2.468-2.759c-0.213-1.51-3.26-2.856-3.26-2.856
			l-61.171-35.246c0,0-1.944-1.181-4.124-1.146s-4.363,1.28-4.363,1.28l-70.598,40.674c0,0-2.528,1.384-2.932,3.303
			C-188.002,78.041-185.654,79.174-185.654,79.174z"/>
		<path id="Path-43_2_" class="st2" d="M-185.654,74.174l60.514,35.079c0,0,2.915,1.837,5.969,1.784
			c3.054-0.053,5.954-1.992,5.954-1.992l69.598-41.175c0,0,2.372-1.374,2.468-2.759c0.096-1.384-0.09-5.731-0.09-5.731
			l-64.342-32.371c0,0-1.944-1.181-4.124-1.146s-4.363,1.28-4.363,1.28l-73.585,38.583c0,0-0.032,3.598,0.055,5.394
			C-187.511,72.918-185.654,74.174-185.654,74.174z"/>
		<path id="Path-43_1_" class="st3" d="M-185.654,68.174l60.514,35.079c0,0,2.915,1.837,5.969,1.784
			c3.054-0.053,5.954-1.992,5.954-1.992l69.598-41.175c0,0,2.681-1.249,2.468-2.759c-0.213-1.51-3.26-2.856-3.26-2.856
			l-61.171-35.246c0,0-1.944-1.181-4.124-1.146s-4.363,1.28-4.363,1.28l-70.598,40.674c0,0-2.528,1.384-2.932,3.303
			C-188.002,67.041-185.654,68.174-185.654,68.174z"/>
		<path id="Path-255_2_" class="st4" d="M-135.026,37.537l20.936-12.649c0,0,2.414-1.705,4.269-1.705c1.855,0,3.83,1.345,3.83,1.345
			l7.304,4.127"/>
	</g>
</g>
<rect x="-414" class="st5" width="187" height="121"/>
<g id="Page-1">
	<g id="basic-web-pages">
		<path id="Path-43" class="st1" d="M-392.654,79.174l60.514,35.079c0,0,2.915,1.837,5.969,1.784
			c3.054-0.053,5.954-1.992,5.954-1.992l69.598-41.175c0,0,2.681-1.249,2.468-2.759c-0.213-1.51-3.26-2.856-3.26-2.856
			l-61.171-35.246c0,0-1.944-1.181-4.124-1.146c-2.18,0.034-4.363,1.28-4.363,1.28l-70.598,40.674c0,0-2.528,1.384-2.932,3.303
			C-395.002,78.041-392.654,79.174-392.654,79.174z"/>
		<path id="Path-43_18_" class="st2" d="M-392.654,74.174l60.514,35.079c0,0,2.915,1.837,5.969,1.784
			c3.054-0.053,5.954-1.992,5.954-1.992l69.598-41.175c0,0,2.372-1.374,2.468-2.759c0.096-1.384-0.09-5.731-0.09-5.731
			l-64.342-32.371c0,0-1.944-1.181-4.124-1.146c-2.18,0.034-4.363,1.28-4.363,1.28l-73.585,38.583c0,0-0.032,3.598,0.055,5.394
			C-394.511,72.918-392.654,74.174-392.654,74.174z"/>
		<path id="Path-43_17_" class="st3" d="M-392.654,68.174l60.514,35.079c0,0,2.915,1.837,5.969,1.784
			c3.054-0.053,5.954-1.992,5.954-1.992l69.598-41.175c0,0,2.681-1.249,2.468-2.759c-0.213-1.51-3.26-2.856-3.26-2.856
			l-61.171-35.246c0,0-1.944-1.181-4.124-1.146c-2.18,0.034-4.363,1.28-4.363,1.28l-70.598,40.674c0,0-2.528,1.384-2.932,3.303
			C-395.002,67.041-392.654,68.174-392.654,68.174z"/>
		<path id="Path-43_15_" class="st1" d="M-336.124,42.51l48.32,27.231c0,0,2.915,1.837,5.969,1.784
			c3.054-0.053,5.954-1.992,5.954-1.992l12.551-7.641c0,0,2.681-1.249,2.468-2.759s-3.26-2.856-3.26-2.856l-49.37-27.59
			c0,0-1.944-1.181-4.124-1.146c-2.18,0.034-4.363,1.28-4.363,1.28l-13.158,7.333c0,0-2.528,1.384-2.932,3.303
			S-336.124,42.51-336.124,42.51z"/>
		<path id="Path-43_14_" class="st3" d="M-336.124,37.51l48.32,27.231c0,0,2.915,1.837,5.969,1.784
			c3.054-0.053,5.954-1.992,5.954-1.992l12.551-7.641c0,0,2.425-1.299,2.468-2.759s-0.008-4.335-0.008-4.335l-52.623-26.111
			c0,0-1.944-1.181-4.124-1.146c-2.18,0.034-4.363,1.28-4.363,1.28l-16.111,6.601c0,0-0.005,2.223,0.021,4.036
			C-338.043,36.27-336.124,37.51-336.124,37.51z"/>
		<path id="Path-43_13_" class="st3" d="M-336.124,32.51l48.32,27.231c0,0,2.915,1.837,5.969,1.784
			c3.054-0.053,5.954-1.992,5.954-1.992l12.551-7.641c0,0,2.681-1.249,2.468-2.759s-3.26-2.856-3.26-2.856l-49.37-27.59
			c0,0-1.944-1.181-4.124-1.146c-2.18,0.034-4.363,1.28-4.363,1.28l-13.158,7.333c0,0-2.528,1.384-2.932,3.303
			S-336.124,32.51-336.124,32.51z"/>
		<path id="Path-43_11_" class="st1" d="M-379.856,68.118l48.32,27.231c0,0,2.915,1.837,5.969,1.784
			c3.054-0.053,5.954-1.992,5.954-1.992l27.901-16.605c0,0,2.681-1.249,2.468-2.759c-0.213-1.51-3.26-2.856-3.26-2.856l-49.37-27.59
			c0,0-1.944-1.181-4.124-1.146c-2.18,0.034-4.363,1.28-4.363,1.28l-28.508,16.298c0,0-2.528,1.384-2.932,3.303
			C-382.205,66.984-379.856,68.118-379.856,68.118z"/>
		<path id="Path-43_10_" class="st3" d="M-379.856,63.118l48.32,27.231c0,0,2.915,1.837,5.969,1.784
			c3.054-0.053,5.954-1.992,5.954-1.992l27.901-16.605c0,0,2.408-1.281,2.468-2.759c0.061-1.478,0.001-5.386,0.001-5.386
			l-52.631-25.06c0,0-1.944-1.181-4.124-1.146c-2.18,0.034-4.363,1.28-4.363,1.28l-31.41,14.612c0,0,0.033,3.009-0.03,4.989
			C-381.864,62.045-379.856,63.118-379.856,63.118z"/>
		<path id="Path-43_7_" class="st3" d="M-379.856,57.118l48.32,27.231c0,0,2.915,1.837,5.969,1.784
			c3.054-0.053,5.954-1.992,5.954-1.992l27.901-16.605c0,0,2.681-1.249,2.468-2.759c-0.213-1.51-3.26-2.856-3.26-2.856l-49.37-27.59
			c0,0-1.944-1.181-4.124-1.146c-2.18,0.034-4.363,1.28-4.363,1.28l-28.508,16.298c0,0-2.528,1.384-2.932,3.303
			C-382.205,55.984-379.856,57.118-379.856,57.118z"/>
		<path id="Path-255" class="st4" d="M-371.215,50.901l20.936-12.649c0,0,2.414-1.705,4.269-1.705s3.83,1.345,3.83,1.345
			l7.304,4.127"/>
		<path id="Path-255_3_" class="st4" d="M-328.258,26.39l6.132-3.719c0,0,2.414-1.705,4.269-1.705c1.855,0,3.83,1.345,3.83,1.345
			l7.304,4.127"/>
	</g>
</g>
<g>
	<g id="Group-5" transform="translate(127.268797, 76.112987)">
		<polygon id="Path-3" class="st1" points="-236.153,-6.405 -220.213,-15.628 -204.342,-6.49 -220.222,3.046 		"/>
		<g id="Group" transform="translate(1.000000, 0.000000)">
			<polygon id="Path-3_1_" class="st2" points="-236.839,-11.227 -236.839,-14.898 -221.214,-20.268 -205.656,-15.181 
				-205.656,-11.31 -221.222,-1.963 			"/>
			<polygon id="Path-3_2_" class="st2" points="-236.839,-15.086 -221.214,-24.128 -205.656,-15.17 -221.222,-5.822 			"/>
			<path id="Path-2" class="st2" d="M-221.284-6.01v3.974"/>
		</g>
	</g>
	<g id="Group-4" transform="translate(98.000000, 83.000000)">
		<polygon id="Path-5" class="st1" points="-214.292,-14.257 -222.171,-0.422 -237.711,-9.612 		"/>
		<g id="Group-3">
			<polygon id="Path-5_1_" class="st2" points="-237.711,-19.039 -214.292,-23.767 -214.292,-18.653 -222.171,-4.817 
				-237.711,-14.007 			"/>
			<polygon id="Path-5_2_" class="st2" points="-214.292,-23.876 -222.171,-10.041 -237.711,-19.231 			"/>
			<path id="Path-7" class="st2" d="M-222.269-9.282v4.262"/>
		</g>
	</g>
	<g id="Group-6" transform="translate(105.000000, 63.000000)">
		<path id="Path-4" class="st1" d="M-232.209-14.074c4.262-2.407,12.549-2.429,16.715-0.013c4.165,2.416,4.229,7.03-0.006,9.668
			s-12.642,2.447-16.826,0.001S-236.471-11.667-232.209-14.074z"/>
		<g id="Group-2" transform="translate(0.944613, 0.873658)">
			<path id="Path-4_1_" class="st2" d="M-233.153-19.343c4.262-2.407,12.549-2.429,16.715-0.013c4.165,2.416,4.229,7.03-0.006,9.668
				s-12.642,2.447-16.826,0.001S-237.416-16.936-233.153-19.343z"/>
			<path id="Path-4_2_" class="st2" d="M-233.153-23.522c4.262-2.407,12.549-2.429,16.715-0.013c4.165,2.416,4.229,7.03-0.006,9.668
				s-12.642,2.447-16.826,0.001S-237.416-21.115-233.153-23.522z"/>
			<path id="Path-6" class="st2" d="M-213.299-18.202v4.038"/>
			<path id="Path-6_1_" class="st2" d="M-236.342-18.202v4.038"/>
		</g>
	</g>
</g>
<rect y="-0.015" class="st5" width="187" height="121"/>
<g id="Page-1_3_">
	<g id="introduction_3_">
		<path id="Path-43_22_" class="st1" d="M21.346,80.188l60.514,35.079c0,0,2.915,1.837,5.969,1.784
			c3.054-0.053,5.954-1.992,5.954-1.992l69.598-41.175c0,0,2.681-1.249,2.468-2.759c-0.213-1.51-3.26-2.856-3.26-2.856
			l-61.171-35.246c0,0-1.944-1.181-4.124-1.146s-4.363,1.28-4.363,1.28L22.334,73.832c0,0-2.528,1.384-2.932,3.303
			C18.998,79.054,21.346,80.188,21.346,80.188z"/>
		<path id="Path-43_21_" class="st2" d="M21.346,75.188l60.514,35.079c0,0,2.915,1.837,5.969,1.784
			c3.054-0.053,5.954-1.992,5.954-1.992l69.598-41.175c0,0,2.372-1.374,2.468-2.759s-0.09-5.731-0.09-5.731l-64.342-32.371
			c0,0-1.944-1.181-4.124-1.146s-4.363,1.28-4.363,1.28L19.347,66.741c0,0-0.032,3.598,0.055,5.394
			C19.489,73.932,21.346,75.188,21.346,75.188z"/>
		<path id="Path-43_8_" class="st3" d="M21.346,69.188l60.514,35.079c0,0,2.915,1.837,5.969,1.784
			c3.054-0.053,5.954-1.992,5.954-1.992l69.598-41.175c0,0,2.681-1.249,2.468-2.759c-0.213-1.51-3.26-2.856-3.26-2.856
			l-61.171-35.246c0,0-1.944-1.181-4.124-1.146s-4.363,1.28-4.363,1.28L22.334,62.832c0,0-2.528,1.384-2.932,3.303
			C18.998,68.054,21.346,69.188,21.346,69.188z"/>
		<path id="Path-255_4_" class="st4" d="M71.974,38.55L92.91,25.901c0,0,2.414-1.705,4.269-1.705c1.855,0,3.83,1.345,3.83,1.345
			l7.304,4.127"/>
	</g>
</g>
<g>
	<path id="Oval-12" class="st6" d="M78.809,61.469c0-2.032,4.064-3.556,9.143-3.556s9.143,2.032,9.143,4.064
		s-4.064,4.064-9.143,3.556C82.873,65.533,78.809,64.009,78.809,61.469z"/>
	<path id="Oval-12_2" class="st6" d="M106.747,53.85c0-2.54,4.064-4.064,9.143-3.556c5.08,0,9.143,1.524,9.143,4.064
		c0,2.032-4.064,3.556-9.143,3.556C110.81,57.406,106.747,55.882,106.747,53.85z"/>
	<path id="Oval-12_3" class="st6" d="M97.604,82.803c0-2.54,4.064-4.064,9.143-4.064s9.143,1.524,9.143,3.556
		s-4.064,4.064-9.143,4.064S97.604,84.835,97.604,82.803z"/>
	<path id="Oval-12_4" class="st6" d="M69.158,86.359c0-2.032,4.064-3.556,9.143-3.556s9.143,1.524,9.143,3.556
		s-4.064,4.064-9.143,4.064S69.158,88.391,69.158,86.359z"/>
	
		<rect x="88.293" y="48.969" transform="matrix(0.9522 -0.3055 0.3055 0.9522 -10.5449 33.7046)" class="st7" width="28.272" height="3.158"/>
	
		<rect x="96.313" y="59.636" transform="matrix(0.3161 -0.9487 0.9487 0.3161 18.2299 147.7189)" class="st7" width="30.519" height="3.158"/>
	<g>
		
			<ellipse id="Oval-1_1_" transform="matrix(0.5954 -0.8035 0.8035 0.5954 -16.8373 115.9174)" class="st8" cx="106.666" cy="74.675" rx="7.999" ry="7.999"/>
		<path class="st7" d="M106.646,84.256c-2.038,0-4.015-0.649-5.683-1.885c-2.055-1.523-3.395-3.755-3.772-6.286
			s0.255-5.057,1.778-7.113c0-0.001,0-0.001,0-0.001c1.524-2.055,3.756-3.394,6.287-3.771c2.538-0.377,5.058,0.255,7.113,1.779
			c4.243,3.144,5.137,9.155,1.993,13.398c-1.524,2.057-3.756,3.396-6.287,3.772C107.597,84.221,107.12,84.256,106.646,84.256z
			 M101.507,70.852c-1.022,1.378-1.444,3.071-1.192,4.767c0.253,1.696,1.15,3.193,2.528,4.214c1.378,1.021,3.067,1.444,4.767,1.192
			c1.696-0.252,3.193-1.15,4.214-2.528c2.107-2.845,1.508-6.874-1.336-8.981c-1.377-1.021-3.07-1.442-4.767-1.192
			C104.024,68.577,102.528,69.475,101.507,70.852L101.507,70.852z"/>
	</g>
	<g>
		
			<ellipse id="Oval-1_5_1_" transform="matrix(0.5954 -0.8035 0.8035 0.5954 10.045 112.0401)" class="st9" cx="116.257" cy="46.047" rx="7.999" ry="7.999"/>
		<path class="st7" d="M116.237,55.628c-2.038,0-4.015-0.649-5.682-1.885c-2.055-1.523-3.395-3.756-3.772-6.286
			c-0.377-2.531,0.255-5.056,1.778-7.112c3.145-4.244,9.156-5.137,13.399-1.993c4.243,3.144,5.137,9.155,1.993,13.399
			c-1.524,2.056-3.756,3.395-6.287,3.772C117.189,55.593,116.712,55.628,116.237,55.628z M116.266,39.629
			c-1.967,0-3.909,0.898-5.167,2.595c-1.022,1.378-1.444,3.071-1.192,4.767c0.253,1.696,1.15,3.193,2.528,4.214
			c1.379,1.022,3.071,1.447,4.767,1.192c1.696-0.252,3.193-1.15,4.214-2.528c2.107-2.844,1.508-6.873-1.336-8.981
			C118.933,40.039,117.594,39.629,116.266,39.629z"/>
	</g>
	
		<rect x="70.096" y="64.803" transform="matrix(0.3941 -0.9191 0.9191 0.3941 -10.2537 117.0366)" class="st7" width="27.079" height="2.984"/>
	
		<rect x="55.758" y="57.184" transform="matrix(0.9586 -0.2846 0.2846 0.9586 -13.6926 23.122)" class="st7" width="33.911" height="2.984"/>
	<g>
		
			<ellipse id="Oval-1_6_1_" transform="matrix(0.5954 -0.8035 0.8035 0.5954 -7.4936 93.2806)" class="st9" cx="88.863" cy="54.08" rx="7.999" ry="7.999"/>
		<path class="st7" d="M88.843,63.661c-2.038,0-4.015-0.649-5.683-1.884c-2.056-1.524-3.395-3.756-3.772-6.287
			c-0.377-2.531,0.255-5.056,1.779-7.112c1.523-2.056,3.756-3.395,6.286-3.772c2.53-0.375,5.056,0.255,7.112,1.778
			c2.056,1.524,3.395,3.756,3.772,6.287c0.377,2.531-0.255,5.056-1.778,7.112c-1.523,2.056-3.756,3.395-6.287,3.772
			C89.795,63.625,89.317,63.661,88.843,63.661z M88.877,47.658c-0.318,0-0.638,0.024-0.958,0.071
			c-1.697,0.252-3.193,1.15-4.214,2.528c0,0,0,0,0,0c-2.108,2.844-1.508,6.873,1.336,8.982c2.845,2.107,6.873,1.508,8.981-1.336
			c2.108-2.844,1.508-6.873-1.336-8.982C91.568,48.093,90.243,47.658,88.877,47.658z M82.436,49.317h0.008H82.436z"/>
	</g>
	<g>
		<path id="Path-432" class="st9" d="M86.431,49.378c0.485-0.53,3.508-1.17,4.589,0.308L86.431,49.378z M86.431,49.378
			L86.431,49.378L86.431,49.378z"/>
		<path class="st7" d="M91.021,50.476c-0.243,0-0.484-0.112-0.638-0.324c-0.267-0.365-0.767-0.503-1.14-0.555
			c-0.944-0.133-1.921,0.14-2.207,0.306c-0.061,0.068-0.133,0.126-0.214,0.169c-0.289,0.178-0.67,0.143-0.937-0.101
			c-0.321-0.294-0.331-0.806-0.037-1.127c0.561-0.612,2.066-0.913,3.191-0.852c1.173,0.065,2.078,0.489,2.618,1.227
			c0.257,0.352,0.181,0.846-0.171,1.103C91.346,50.426,91.183,50.476,91.021,50.476z"/>
	</g>
	<g>
		
			<ellipse id="Oval-1_7_1_" transform="matrix(0.5954 -0.8035 0.8035 0.5954 -31.361 94.7621)" class="st9" cx="78.4" cy="78.517" rx="8.042" ry="8.042"/>
		<path class="st7" d="M78.389,88.134c-1.991,0-3.997-0.614-5.716-1.887c-4.262-3.159-5.16-9.196-2.002-13.458c0,0,0,0,0-0.001
			c3.159-4.261,9.195-5.159,13.458-2.002c4.262,3.159,5.16,9.196,2.002,13.458C84.245,86.788,81.335,88.134,78.389,88.134z
			 M73.208,74.669c-2.122,2.864-1.518,6.919,1.345,9.04s6.918,1.518,9.04-1.345c2.122-2.863,1.518-6.918-1.345-9.04
			C79.385,71.201,75.33,71.806,73.208,74.669L73.208,74.669z"/>
	</g>
	<g>
		<path id="Path-432_8" class="st9" d="M76.3,73.966c0.546-0.996,3.611-1.387,4.568,0.174L76.3,73.966z M76.319,73.459
			L76.319,73.459L76.319,73.459z"/>
		<path class="st7" d="M80.869,74.931c-0.266,0-0.525-0.134-0.674-0.377c-0.265-0.432-0.906-0.661-1.699-0.671
			c-0.879,0.014-1.432,0.337-1.504,0.463c-0.214,0.377-0.696,0.516-1.074,0.303c-0.353-0.197-0.498-0.619-0.348-0.983
			c-0.018-0.066-0.028-0.136-0.028-0.207c0-0.436,0.349-0.789,0.785-0.789h0.008c0.094,0,0.183,0.016,0.266,0.046
			c0.573-0.275,1.257-0.397,1.827-0.41c1.385-0.051,2.546,0.498,3.112,1.423c0.228,0.372,0.111,0.858-0.26,1.086
			C81.152,74.892,81.01,74.931,80.869,74.931z"/>
	</g>
	<g>
		<path id="Path-432_9" class="st8" d="M104.207,70.104c1.016-1.016,3.556-1.524,5.08,0H104.207z M104.715,69.596L104.715,69.596
			L104.715,69.596z"/>
		<path class="st7" d="M109.286,70.894c-0.202,0-0.404-0.076-0.558-0.231c-1.228-1.229-3.265-0.697-3.963,0
			c-0.309,0.309-0.808,0.309-1.117,0c-0.308-0.308-0.308-0.809,0-1.117c0.114-0.113,0.241-0.221,0.381-0.324
			c0.132-0.247,0.392-0.416,0.693-0.416h0.008c0.006,0,0.012,0,0.019,0c1.483-0.679,3.633-0.723,5.096,0.739
			c0.308,0.308,0.308,0.809,0,1.117C109.69,70.818,109.488,70.894,109.286,70.894z"/>
	</g>
	<g>
		<path id="Path-432_10" class="st9" d="M113.858,41.151c1.016-0.508,3.556-1.016,5.08,0.508L113.858,41.151z M114.366,41.151
			L114.366,41.151L114.366,41.151z"/>
		<path class="st7" d="M118.937,42.449c-0.202,0-0.404-0.077-0.558-0.231c-0.906-0.907-2.33-0.885-3.327-0.649
			c-0.185,0.296-0.594,0.445-0.933,0.328c-0.371,0.13-0.788-0.033-0.967-0.392c-0.196-0.39-0.037-0.864,0.353-1.059
			c1.376-0.687,4.218-1.118,5.991,0.655c0.308,0.308,0.308,0.808,0,1.117C119.341,42.371,119.139,42.449,118.937,42.449z"/>
	</g>
	<path id="Oval-12_11" class="st6" d="M47.316,71.12c0-2.032,4.064-3.556,9.143-3.556c5.08-0.508,9.143,1.524,9.143,3.556
		s-4.064,4.064-9.143,4.064S47.316,73.152,47.316,71.12z"/>
	<g>
		
			<ellipse id="Oval-1_12_1_" transform="matrix(0.5954 -0.8035 0.8035 0.5954 -28.0194 70.8934)" class="st9" cx="56.374" cy="63.265" rx="8.042" ry="8.042"/>
		<path class="st7" d="M56.354,72.887c-2.047,0-4.033-0.652-5.708-1.893c-4.262-3.159-5.16-9.196-2.002-13.458
			c3.159-4.262,9.195-5.16,13.458-2.002c2.065,1.53,3.41,3.773,3.788,6.314c0.378,2.542-0.256,5.079-1.786,7.144
			c-1.53,2.064-3.772,3.41-6.314,3.788C57.31,72.852,56.83,72.887,56.354,72.887z M56.388,56.801c-0.32,0-0.642,0.024-0.965,0.072
			c-1.708,0.254-3.214,1.158-4.241,2.545c-1.028,1.387-1.454,3.091-1.2,4.798c0.254,1.708,1.158,3.214,2.545,4.241
			c1.387,1.028,3.091,1.451,4.799,1.2c1.708-0.254,3.214-1.158,4.241-2.545c1.028-1.387,1.454-3.091,1.2-4.798
			c-0.254-1.708-1.158-3.214-2.545-4.241C59.097,57.239,57.763,56.801,56.388,56.801z"/>
	</g>
	<g>
		<path id="Path-432_13" class="st9" d="M53.687,58.902c1.016-1.016,4.064-1.524,5.08,0H53.687z M54.195,58.394L54.195,58.394
			L54.195,58.394z"/>
		<path class="st7" d="M58.767,59.692c-0.255,0-0.506-0.124-0.658-0.352c-0.278-0.416-0.83-0.553-1.245-0.594
			c-1.033-0.101-2.191,0.287-2.619,0.714c-0.308,0.309-0.808,0.308-1.116,0c-0.308-0.308-0.309-0.808,0-1.116
			c0.112-0.112,0.238-0.217,0.377-0.316c0.131-0.252,0.393-0.424,0.697-0.424h0.008c0.02,0,0.039,0.001,0.059,0.002
			c0.819-0.352,1.828-0.524,2.75-0.432c1.081,0.107,1.913,0.553,2.404,1.29c0.242,0.363,0.144,0.853-0.219,1.095
			C59.07,59.649,58.918,59.692,58.767,59.692z"/>
	</g>
</g>
</svg>
