<?xml version="1.0" encoding="utf-8"?>
<!-- Generator: Adobe Illustrator 21.0.0, SVG Export Plug-In . SVG Version: 6.00 Build 0)  -->
<svg version="1.1" id="Слой_1" xmlns="http://www.w3.org/2000/svg" xmlns:xlink="http://www.w3.org/1999/xlink" x="0px" y="0px"
	 viewBox="0 0 187 121" style="enable-background:new 0 0 187 121;" xml:space="preserve">
<style type="text/css">
	.st0{fill:#FFFFFF;stroke:#0E0F0F;stroke-miterlimit:10;}
	.st1{fill:#5D5F62;fill-opacity:0.15;}
	.st2{fill:#FFFFFF;stroke:#5D5F62;stroke-width:2;stroke-linecap:round;stroke-linejoin:round;}
	.st3{fill:#FFFFFF;stroke:#5D5F62;stroke-width:2;stroke-linejoin:round;}
	.st4{fill:none;stroke:#5D5F62;stroke-linecap:round;stroke-linejoin:round;}
	.st5{fill:none;}
</style>
<g>
	<rect x="-1028" y="0.335" class="st0" width="187" height="121"/>
	<g id="Page-1_1_">
		<g id="introduction_1_">
			<path id="Path-43_6_" class="st1" d="M-1006.654,80.538l60.514,35.079c0,0,2.915,1.837,5.969,1.784
				c3.054-0.053,5.954-1.992,5.954-1.992l69.598-41.175c0,0,2.681-1.249,2.468-2.759c-0.213-1.51-3.26-2.856-3.26-2.856
				l-61.171-35.246c0,0-1.944-1.181-4.124-1.146c-2.18,0.034-4.363,1.28-4.363,1.28l-70.598,40.674c0,0-2.528,1.384-2.932,3.303
				C-1009.002,79.404-1006.654,80.538-1006.654,80.538z"/>
			<path id="Path-43_5_" class="st2" d="M-1006.654,75.538l60.514,35.079c0,0,2.915,1.837,5.969,1.784
				c3.054-0.053,5.954-1.992,5.954-1.992l69.598-41.175c0,0,2.372-1.374,2.468-2.759c0.096-1.384-0.09-5.731-0.09-5.731
				l-64.342-32.371c0,0-1.944-1.181-4.124-1.146c-2.18,0.034-4.363,1.28-4.363,1.28l-73.585,38.583c0,0-0.032,3.598,0.055,5.394
				C-1008.511,74.282-1006.654,75.538-1006.654,75.538z"/>
			<path id="Path-43_3_" class="st3" d="M-1006.654,69.538l60.514,35.079c0,0,2.915,1.837,5.969,1.784
				c3.054-0.053,5.954-1.992,5.954-1.992l69.598-41.175c0,0,2.681-1.249,2.468-2.759c-0.213-1.51-3.26-2.856-3.26-2.856
				l-61.171-35.246c0,0-1.944-1.181-4.124-1.146c-2.18,0.034-4.363,1.28-4.363,1.28l-70.598,40.674c0,0-2.528,1.384-2.932,3.303
				C-1009.002,68.404-1006.654,69.538-1006.654,69.538z"/>
			<path id="Path-255_1_" class="st4" d="M-956.026,38.9l20.936-12.649c0,0,2.414-1.705,4.269-1.705c1.855,0,3.83,1.345,3.83,1.345
				l7.304,4.127"/>
		</g>
	</g>
</g>
<g>
	<rect x="-841" y="0.335" class="st0" width="187" height="121"/>
	<g id="Page-1_2_">
		<g id="introduction_2_">
			<path id="Path-43_4_" class="st1" d="M-819.654,79.51l60.514,35.079c0,0,2.915,1.837,5.969,1.784
				c3.054-0.053,5.954-1.992,5.954-1.992l69.598-41.175c0,0,2.681-1.249,2.468-2.759c-0.213-1.51-3.26-2.856-3.26-2.856
				l-61.171-35.246c0,0-1.944-1.181-4.124-1.146c-2.18,0.034-4.363,1.28-4.363,1.28l-70.598,40.674c0,0-2.528,1.384-2.932,3.303
				C-822.002,78.376-819.654,79.51-819.654,79.51z"/>
			<path id="Path-43_2_" class="st2" d="M-819.654,74.51l60.514,35.079c0,0,2.915,1.837,5.969,1.784
				c3.054-0.053,5.954-1.992,5.954-1.992l69.598-41.175c0,0,2.372-1.374,2.468-2.759c0.096-1.384-0.09-5.731-0.09-5.731
				l-64.342-32.371c0,0-1.944-1.181-4.124-1.146c-2.18,0.034-4.363,1.28-4.363,1.28l-73.585,38.583c0,0-0.032,3.598,0.055,5.394
				C-821.511,73.254-819.654,74.51-819.654,74.51z"/>
			<path id="Path-43_1_" class="st3" d="M-819.654,68.51l60.514,35.079c0,0,2.915,1.837,5.969,1.784
				c3.054-0.053,5.954-1.992,5.954-1.992l69.598-41.175c0,0,2.681-1.249,2.468-2.759c-0.213-1.51-3.26-2.856-3.26-2.856
				l-61.171-35.246c0,0-1.944-1.181-4.124-1.146c-2.18,0.034-4.363,1.28-4.363,1.28l-70.598,40.674c0,0-2.528,1.384-2.932,3.303
				C-822.002,67.376-819.654,68.51-819.654,68.51z"/>
			<path id="Path-255_2_" class="st4" d="M-769.026,37.872l20.936-12.649c0,0,2.414-1.705,4.269-1.705
				c1.855,0,3.83,1.345,3.83,1.345l7.304,4.127"/>
		</g>
	</g>
</g>
<rect class="st5" width="187" height="121"/>
<g id="Page-1">
	<g id="basic-web-pages">
		<path id="Path-43" class="st1" d="M21.346,79.174l60.514,35.079c0,0,2.915,1.837,5.969,1.784c3.054-0.053,5.954-1.992,5.954-1.992
			l69.598-41.175c0,0,2.681-1.249,2.468-2.759c-0.213-1.51-3.26-2.856-3.26-2.856L101.419,32.01c0,0-1.944-1.181-4.124-1.146
			s-4.363,1.28-4.363,1.28L22.334,72.819c0,0-2.528,1.384-2.932,3.303C18.998,78.041,21.346,79.174,21.346,79.174z"/>
		<path id="Path-43_18_" class="st2" d="M21.346,74.174l60.514,35.079c0,0,2.915,1.837,5.969,1.784
			c3.054-0.053,5.954-1.992,5.954-1.992l69.598-41.175c0,0,2.372-1.374,2.468-2.759c0.096-1.384-0.09-5.731-0.09-5.731
			L101.419,27.01c0,0-1.944-1.181-4.124-1.146s-4.363,1.28-4.363,1.28L19.347,65.727c0,0-0.032,3.598,0.055,5.394
			C19.489,72.918,21.346,74.174,21.346,74.174z"/>
		<path id="Path-43_17_" class="st3" d="M21.346,68.174l60.514,35.079c0,0,2.915,1.837,5.969,1.784
			c3.054-0.053,5.954-1.992,5.954-1.992l69.598-41.175c0,0,2.681-1.249,2.468-2.759c-0.213-1.51-3.26-2.856-3.26-2.856
			L101.419,21.01c0,0-1.944-1.181-4.124-1.146s-4.363,1.28-4.363,1.28L22.334,61.819c0,0-2.528,1.384-2.932,3.303
			C18.998,67.041,21.346,68.174,21.346,68.174z"/>
		<path id="Path-43_15_" class="st1" d="M77.876,42.51l48.32,27.231c0,0,2.915,1.837,5.969,1.784
			c3.054-0.053,5.954-1.992,5.954-1.992l12.551-7.641c0,0,2.681-1.249,2.468-2.759s-3.26-2.856-3.26-2.856l-49.37-27.59
			c0,0-1.944-1.181-4.124-1.146s-4.363,1.28-4.363,1.28l-13.158,7.333c0,0-2.528,1.384-2.932,3.303
			C75.527,41.377,77.876,42.51,77.876,42.51z"/>
		<path id="Path-43_14_" class="st3" d="M77.876,37.51l48.32,27.231c0,0,2.915,1.837,5.969,1.784
			c3.054-0.053,5.954-1.992,5.954-1.992l12.551-7.641c0,0,2.425-1.299,2.468-2.759s-0.008-4.335-0.008-4.335l-52.623-26.111
			c0,0-1.944-1.181-4.124-1.146s-4.363,1.28-4.363,1.28l-16.111,6.601c0,0-0.005,2.223,0.021,4.036
			C75.957,36.27,77.876,37.51,77.876,37.51z"/>
		<path id="Path-43_13_" class="st3" d="M77.876,32.51l48.32,27.231c0,0,2.915,1.837,5.969,1.784
			c3.054-0.053,5.954-1.992,5.954-1.992l12.551-7.641c0,0,2.681-1.249,2.468-2.759s-3.26-2.856-3.26-2.856l-49.37-27.59
			c0,0-1.944-1.181-4.124-1.146s-4.363,1.28-4.363,1.28l-13.158,7.333c0,0-2.528,1.384-2.932,3.303
			C75.527,31.377,77.876,32.51,77.876,32.51z"/>
		<path id="Path-43_11_" class="st1" d="M34.144,68.118l48.32,27.231c0,0,2.915,1.837,5.969,1.784
			c3.054-0.053,5.954-1.992,5.954-1.992l27.901-16.605c0,0,2.681-1.249,2.468-2.759c-0.213-1.51-3.26-2.856-3.26-2.856l-49.37-27.59
			c0,0-1.944-1.181-4.124-1.146c-2.18,0.034-4.363,1.28-4.363,1.28L35.131,61.762c0,0-2.528,1.384-2.932,3.303
			C31.795,66.984,34.144,68.118,34.144,68.118z"/>
		<path id="Path-43_10_" class="st3" d="M34.144,63.118l48.32,27.231c0,0,2.915,1.837,5.969,1.784
			c3.054-0.053,5.954-1.992,5.954-1.992l27.901-16.605c0,0,2.408-1.281,2.468-2.759s0.001-5.386,0.001-5.386L72.125,40.33
			c0,0-1.944-1.181-4.124-1.146c-2.18,0.034-4.363,1.28-4.363,1.28l-31.41,14.612c0,0,0.033,3.009-0.03,4.989
			C32.136,62.045,34.144,63.118,34.144,63.118z"/>
		<path id="Path-43_7_" class="st3" d="M34.144,57.118l48.32,27.231c0,0,2.915,1.837,5.969,1.784
			c3.054-0.053,5.954-1.992,5.954-1.992l27.901-16.605c0,0,2.681-1.249,2.468-2.759c-0.213-1.51-3.26-2.856-3.26-2.856l-49.37-27.59
			c0,0-1.944-1.181-4.124-1.146c-2.18,0.034-4.363,1.28-4.363,1.28L35.131,50.762c0,0-2.528,1.384-2.932,3.303
			C31.795,55.984,34.144,57.118,34.144,57.118z"/>
		<path id="Path-255" class="st4" d="M42.785,50.901l20.936-12.649c0,0,2.414-1.705,4.269-1.705c1.855,0,3.83,1.345,3.83,1.345
			l7.304,4.127"/>
		<path id="Path-255_3_" class="st4" d="M85.742,26.39l6.132-3.719c0,0,2.414-1.705,4.269-1.705c1.855,0,3.83,1.345,3.83,1.345
			l7.304,4.127"/>
	</g>
</g>
</svg>
