<?xml version="1.0" encoding="UTF-8"?>
<!DOCTYPE svg PUBLIC "-//W3C//DTD SVG 1.1//EN" "http://www.w3.org/Graphics/SVG/1.1/DTD/svg11.dtd">
<!-- Creator: CorelDRAW X7 -->
<svg xmlns="http://www.w3.org/2000/svg" xml:space="preserve" width="187px" height="123px" version="1.1" style="shape-rendering:geometricPrecision; text-rendering:geometricPrecision; image-rendering:optimizeQuality; fill-rule:evenodd; clip-rule:evenodd"
viewBox="0 0 294 192"
 xmlns:xlink="http://www.w3.org/1999/xlink">
 <defs>
  <style type="text/css">
   <![CDATA[
    .str3 {stroke:#5D6063;stroke-width:3.73638}
    .str1 {stroke:#5D6063;stroke-width:3.95459;stroke-linejoin:round}
    .str2 {stroke:#5D6063;stroke-width:1.97729;stroke-linecap:round;stroke-linejoin:round}
    .str0 {stroke:#5D6063;stroke-width:3.95459;stroke-linecap:round;stroke-linejoin:round}
    .fil2 {fill:none}
    .fil3 {fill:#B2D6FF}
    .fil4 {fill:#B2D6FF}
    .fil1 {fill:white}
    .fil0 {fill:#5D6063;fill-opacity:0.149020}
   ]]>
  </style>
 </defs>
 <g id="Слой_x0020_1">
  <metadata id="CorelCorpID_0Corel-Layer"/>
  <g id="_2586060973776">
   <g id="Page-1">
    <g id="introduction">
     <path id="Path-43" class="fil0" d="M6 119l120 70c0,0 5,3 11,3 6,0 12,-4 12,-4l138 -81c0,0 5,-3 5,-6 -1,-3 -7,-5 -7,-5l-121 -70c0,0 -4,-2 -8,-2 -4,0 -9,2 -9,2l-139 81c0,0 -5,2 -6,6 -1,4 4,6 4,6z"/>
     <path id="Path-43_0" class="fil1 str0" d="M6 109l120 70c0,0 5,3 11,3 6,0 12,-4 12,-4l138 -81c0,0 4,-3 5,-6 0,-2 -1,-11 -1,-11l-127 -64c0,0 -4,-2 -8,-2 -4,0 -9,2 -9,2l-145 77c0,0 0,7 0,10 0,4 4,6 4,6z"/>
     <path id="Path-43_1" class="fil1 str1" d="M6 97l120 70c0,0 5,3 11,3 6,0 12,-4 12,-4l138 -81c0,0 5,-2 5,-5 -1,-3 -7,-6 -7,-6l-121 -70c0,0 -4,-2 -8,-2 -4,0 -9,3 -9,3l-139 80c0,0 -5,3 -6,6 -1,4 4,6 4,6z"/>
     <path id="Path-255" class="fil2 str2" d="M106 37l41 -25c0,0 5,-3 9,-3 4,0 7,2 7,2l15 8"/>
    </g>
   </g>
  </g>
  <path id="Oval-12" class="fil0" d="M116 84c0,-4 8,-7 18,-7 10,0 18,4 18,8 0,4 -8,8 -18,7 -10,0 -18,-3 -18,-8z"/>
  <path id="Oval-12_2" class="fil0" d="M171 69c0,-5 8,-8 18,-7 10,0 18,3 18,8 0,4 -8,7 -18,7 -10,-1 -18,-4 -18,-8z"/>
  <path id="Oval-12_3" class="fil0" d="M153 126c0,-5 8,-8 18,-8 10,0 18,3 18,7 0,4 -8,8 -18,8 -10,0 -18,-3 -18,-7z"/>
  <path id="Oval-12_4" class="fil0" d="M97 133c0,-4 8,-7 18,-7 10,0 18,3 18,7 0,4 -8,8 -18,8 -10,0 -18,-4 -18,-8z"/>
  <line id="Path-435" class="fil2 str1" x1="189" y1="54" x2="136" y2= "71" />
  <line id="Path-436" class="fil2 str1" x1="190" y1="55" x2="171" y2= "112" />
  <circle id="Oval-1" class="fil3 str0" transform="matrix(-0.669719 0.903802 0.903802 0.669719 170.84 109.998)" r="14"/>
  <circle id="Oval-1_5" class="fil1 str0" transform="matrix(-0.669719 0.903802 0.903802 0.669719 189.723 53.6389)" r="14"/>
  <line class="fil2 str3" x1="136" y1="69" x2="115" y2= "118" />
  <line class="fil2 str3" x1="136" y1="69" x2="72" y2= "88" />
  <circle id="Oval-1_6" class="fil1 str0" transform="matrix(-0.669719 0.903802 0.903802 0.669719 135.793 69.4531)" r="14"/>
  <g>
   <path id="Path-432" class="fil1" d="M131 60c1,-1 7,-2 9,1l-9 -1zm0 0l0 0 0 0z"/>
   <path id="1" class="fil2 str2" d="M131 60c1,-1 7,-2 9,1m-9 -1l0 0 0 0z"/>
  </g>
  <g>
   <circle id="Oval-1_7" class="fil1 str0" transform="matrix(-0.67325 0.908566 0.908566 0.67325 115.195 117.561)" r="14"/>
   <g>
    <path id="Path-432_8" class="fil1" d="M111 108c1,-2 7,-3 9,0l-9 0zm0 -1l0 0 0 0z"/>
    <path id="1" class="fil2 str2" d="M111 108c1,-2 7,-3 9,0m-9 -1l0 0 0 0z"/>
   </g>
  </g>
  <g>
   <path id="Path-432_9" class="fil4" d="M166 101c2,-2 7,-3 10,0l-10 0zm1 -1l0 0 0 0z"/>
   <path id="1" class="fil2 str2" d="M166 101c2,-2 7,-3 10,0m-9 -1l0 0 0 0z"/>
  </g>
  <g>
   <path id="Path-432_10" class="fil1" d="M185 44c2,-1 7,-2 10,1l-10 -1zm1 0l0 0 0 0z"/>
   <path id="1" class="fil2 str2" d="M185 44c2,-1 7,-2 10,1m-9 -1l0 0 0 0z"/>
  </g>
  <path id="Oval-12_11" class="fil0" d="M54 103c0,-4 8,-7 18,-7 10,-1 18,3 18,7 0,4 -8,8 -18,8 -10,0 -18,-4 -18,-8z"/>
  <g>
   <circle id="Oval-1_12" class="fil1 str0" transform="matrix(-0.67325 0.908566 0.908566 0.67325 71.8322 87.5348)" r="14"/>
   <g>
    <path id="Path-432_13" class="fil1" d="M67 78c2,-2 8,-3 10,0l-10 0zm1 -1l0 0 0 0z"/>
    <path id="1" class="fil2 str2" d="M67 78c2,-2 8,-3 10,0m-9 -1l0 0 0 0z"/>
   </g>
  </g>
 </g>
</svg>
