<?xml version="1.0" encoding="utf-8"?>
<!-- Generator: Adobe Illustrator 21.0.0, SVG Export Plug-In . SVG Version: 6.00 Build 0)  -->
<svg version="1.1" id="Слой_1" xmlns="http://www.w3.org/2000/svg" xmlns:xlink="http://www.w3.org/1999/xlink" x="0px" y="0px"
	 viewBox="0 0 187 121" style="enable-background:new 0 0 187 121;" xml:space="preserve">
<style type="text/css">
	.st0{fill:#FFFFFF;stroke:#0E0F0F;stroke-miterlimit:10;}
	.st1{fill:#5D5F62;fill-opacity:0.15;}
	.st2{fill:#FFFFFF;stroke:#5D5F62;stroke-width:2;stroke-linecap:round;stroke-linejoin:round;}
	.st3{fill:#FFFFFF;stroke:#5D5F62;stroke-width:2;stroke-linejoin:round;}
	.st4{fill:none;stroke:#5D5F62;stroke-linecap:round;stroke-linejoin:round;}
	.st5{fill:none;}
	.st6{opacity:0.149;fill-rule:evenodd;clip-rule:evenodd;fill:#5D5F62;}
	.st7{fill:none;stroke:#5D5F62;stroke-width:1.8865;stroke-linejoin:round;stroke-miterlimit:22.9256;}
	.st8{fill-rule:evenodd;clip-rule:evenodd;fill:#BCD1EF;}
	.st9{fill:none;stroke:#5D5F62;stroke-width:2.122;stroke-linecap:round;stroke-linejoin:round;stroke-miterlimit:22.9256;}
	.st10{fill-rule:evenodd;clip-rule:evenodd;fill:#FFFFFF;}
	.st11{fill:none;stroke:#5D5F62;stroke-width:1.7824;stroke-miterlimit:22.9256;}
	.st12{fill:none;stroke:#5D5F62;stroke-width:0.9434;stroke-linecap:round;stroke-linejoin:round;stroke-miterlimit:22.9256;}
	.st13{fill:none;stroke:#5D5F62;stroke-width:2.1334;stroke-linecap:round;stroke-linejoin:round;stroke-miterlimit:22.9256;}
</style>
<g>
	<rect x="-1442" y="0.335" class="st0" width="187" height="121"/>
	<g id="Page-1_1_">
		<g id="introduction_1_">
			<path id="Path-43_6_" class="st1" d="M-1420.654,80.538l60.514,35.079c0,0,2.915,1.837,5.969,1.784
				c3.054-0.053,5.954-1.992,5.954-1.992l69.598-41.175c0,0,2.681-1.249,2.468-2.759c-0.213-1.51-3.26-2.856-3.26-2.856
				l-61.171-35.246c0,0-1.944-1.181-4.124-1.146c-2.18,0.034-4.363,1.28-4.363,1.28l-70.598,40.674c0,0-2.528,1.384-2.932,3.303
				S-1420.654,80.538-1420.654,80.538z"/>
			<path id="Path-43_5_" class="st2" d="M-1420.654,75.538l60.514,35.079c0,0,2.915,1.837,5.969,1.784
				c3.054-0.053,5.954-1.992,5.954-1.992l69.598-41.175c0,0,2.372-1.374,2.468-2.759c0.096-1.384-0.09-5.731-0.09-5.731
				l-64.342-32.371c0,0-1.944-1.181-4.124-1.146s-4.363,1.28-4.363,1.28l-73.585,38.583c0,0-0.032,3.598,0.055,5.394
				C-1422.511,74.282-1420.654,75.538-1420.654,75.538z"/>
			<path id="Path-43_3_" class="st3" d="M-1420.654,69.538l60.514,35.079c0,0,2.915,1.837,5.969,1.784
				c3.054-0.053,5.954-1.992,5.954-1.992l69.598-41.175c0,0,2.681-1.249,2.468-2.759c-0.213-1.51-3.26-2.856-3.26-2.856
				l-61.171-35.246c0,0-1.944-1.181-4.124-1.146s-4.363,1.28-4.363,1.28l-70.598,40.674c0,0-2.528,1.384-2.932,3.303
				C-1423.002,68.404-1420.654,69.538-1420.654,69.538z"/>
			<path id="Path-255_1_" class="st4" d="M-1370.026,38.9l20.936-12.649c0,0,2.414-1.705,4.269-1.705c1.855,0,3.83,1.345,3.83,1.345
				l7.304,4.127"/>
		</g>
	</g>
</g>
<rect x="-207" class="st5" width="187" height="121"/>
<g id="Page-1_2_">
	<g id="introduction_2_">
		<path id="Path-43_4_" class="st1" d="M-185.654,79.174l60.514,35.079c0,0,2.915,1.837,5.969,1.784
			c3.054-0.053,5.954-1.992,5.954-1.992l69.598-41.175c0,0,2.681-1.249,2.468-2.759c-0.213-1.51-3.26-2.856-3.26-2.856
			l-61.171-35.246c0,0-1.944-1.181-4.124-1.146s-4.363,1.28-4.363,1.28l-70.598,40.674c0,0-2.528,1.384-2.932,3.303
			C-188.002,78.041-185.654,79.174-185.654,79.174z"/>
		<path id="Path-43_2_" class="st2" d="M-185.654,74.174l60.514,35.079c0,0,2.915,1.837,5.969,1.784
			c3.054-0.053,5.954-1.992,5.954-1.992l69.598-41.175c0,0,2.372-1.374,2.468-2.759c0.096-1.384-0.09-5.731-0.09-5.731
			l-64.342-32.371c0,0-1.944-1.181-4.124-1.146s-4.363,1.28-4.363,1.28l-73.585,38.583c0,0-0.032,3.598,0.055,5.394
			C-187.511,72.918-185.654,74.174-185.654,74.174z"/>
		<path id="Path-43_1_" class="st3" d="M-185.654,68.174l60.514,35.079c0,0,2.915,1.837,5.969,1.784
			c3.054-0.053,5.954-1.992,5.954-1.992l69.598-41.175c0,0,2.681-1.249,2.468-2.759c-0.213-1.51-3.26-2.856-3.26-2.856
			l-61.171-35.246c0,0-1.944-1.181-4.124-1.146s-4.363,1.28-4.363,1.28l-70.598,40.674c0,0-2.528,1.384-2.932,3.303
			C-188.002,67.041-185.654,68.174-185.654,68.174z"/>
		<path id="Path-255_2_" class="st4" d="M-135.026,37.537l20.936-12.649c0,0,2.414-1.705,4.269-1.705c1.855,0,3.83,1.345,3.83,1.345
			l7.304,4.127"/>
	</g>
</g>
<rect x="-414" class="st5" width="187" height="121"/>
<g id="Page-1">
	<g id="basic-web-pages">
		<path id="Path-43" class="st1" d="M-392.654,79.174l60.514,35.079c0,0,2.915,1.837,5.969,1.784
			c3.054-0.053,5.954-1.992,5.954-1.992l69.598-41.175c0,0,2.681-1.249,2.468-2.759c-0.213-1.51-3.26-2.856-3.26-2.856
			l-61.171-35.246c0,0-1.944-1.181-4.124-1.146c-2.18,0.034-4.363,1.28-4.363,1.28l-70.598,40.674c0,0-2.528,1.384-2.932,3.303
			C-395.002,78.041-392.654,79.174-392.654,79.174z"/>
		<path id="Path-43_18_" class="st2" d="M-392.654,74.174l60.514,35.079c0,0,2.915,1.837,5.969,1.784
			c3.054-0.053,5.954-1.992,5.954-1.992l69.598-41.175c0,0,2.372-1.374,2.468-2.759c0.096-1.384-0.09-5.731-0.09-5.731
			l-64.342-32.371c0,0-1.944-1.181-4.124-1.146c-2.18,0.034-4.363,1.28-4.363,1.28l-73.585,38.583c0,0-0.032,3.598,0.055,5.394
			C-394.511,72.918-392.654,74.174-392.654,74.174z"/>
		<path id="Path-43_17_" class="st3" d="M-392.654,68.174l60.514,35.079c0,0,2.915,1.837,5.969,1.784
			c3.054-0.053,5.954-1.992,5.954-1.992l69.598-41.175c0,0,2.681-1.249,2.468-2.759c-0.213-1.51-3.26-2.856-3.26-2.856
			l-61.171-35.246c0,0-1.944-1.181-4.124-1.146c-2.18,0.034-4.363,1.28-4.363,1.28l-70.598,40.674c0,0-2.528,1.384-2.932,3.303
			C-395.002,67.041-392.654,68.174-392.654,68.174z"/>
		<path id="Path-43_15_" class="st1" d="M-336.124,42.51l48.32,27.231c0,0,2.915,1.837,5.969,1.784
			c3.054-0.053,5.954-1.992,5.954-1.992l12.551-7.641c0,0,2.681-1.249,2.468-2.759s-3.26-2.856-3.26-2.856l-49.37-27.59
			c0,0-1.944-1.181-4.124-1.146c-2.18,0.034-4.363,1.28-4.363,1.28l-13.158,7.333c0,0-2.528,1.384-2.932,3.303
			S-336.124,42.51-336.124,42.51z"/>
		<path id="Path-43_14_" class="st3" d="M-336.124,37.51l48.32,27.231c0,0,2.915,1.837,5.969,1.784
			c3.054-0.053,5.954-1.992,5.954-1.992l12.551-7.641c0,0,2.425-1.299,2.468-2.759s-0.008-4.335-0.008-4.335l-52.623-26.111
			c0,0-1.944-1.181-4.124-1.146c-2.18,0.034-4.363,1.28-4.363,1.28l-16.111,6.601c0,0-0.005,2.223,0.021,4.036
			C-338.043,36.27-336.124,37.51-336.124,37.51z"/>
		<path id="Path-43_13_" class="st3" d="M-336.124,32.51l48.32,27.231c0,0,2.915,1.837,5.969,1.784
			c3.054-0.053,5.954-1.992,5.954-1.992l12.551-7.641c0,0,2.681-1.249,2.468-2.759s-3.26-2.856-3.26-2.856l-49.37-27.59
			c0,0-1.944-1.181-4.124-1.146c-2.18,0.034-4.363,1.28-4.363,1.28l-13.158,7.333c0,0-2.528,1.384-2.932,3.303
			S-336.124,32.51-336.124,32.51z"/>
		<path id="Path-43_11_" class="st1" d="M-379.856,68.118l48.32,27.231c0,0,2.915,1.837,5.969,1.784
			c3.054-0.053,5.954-1.992,5.954-1.992l27.901-16.605c0,0,2.681-1.249,2.468-2.759c-0.213-1.51-3.26-2.856-3.26-2.856l-49.37-27.59
			c0,0-1.944-1.181-4.124-1.146c-2.18,0.034-4.363,1.28-4.363,1.28l-28.508,16.298c0,0-2.528,1.384-2.932,3.303
			C-382.205,66.984-379.856,68.118-379.856,68.118z"/>
		<path id="Path-43_10_" class="st3" d="M-379.856,63.118l48.32,27.231c0,0,2.915,1.837,5.969,1.784
			c3.054-0.053,5.954-1.992,5.954-1.992l27.901-16.605c0,0,2.408-1.281,2.468-2.759c0.061-1.478,0.001-5.386,0.001-5.386
			l-52.631-25.06c0,0-1.944-1.181-4.124-1.146c-2.18,0.034-4.363,1.28-4.363,1.28l-31.41,14.612c0,0,0.033,3.009-0.03,4.989
			C-381.864,62.045-379.856,63.118-379.856,63.118z"/>
		<path id="Path-43_7_" class="st3" d="M-379.856,57.118l48.32,27.231c0,0,2.915,1.837,5.969,1.784
			c3.054-0.053,5.954-1.992,5.954-1.992l27.901-16.605c0,0,2.681-1.249,2.468-2.759c-0.213-1.51-3.26-2.856-3.26-2.856l-49.37-27.59
			c0,0-1.944-1.181-4.124-1.146c-2.18,0.034-4.363,1.28-4.363,1.28l-28.508,16.298c0,0-2.528,1.384-2.932,3.303
			C-382.205,55.984-379.856,57.118-379.856,57.118z"/>
		<path id="Path-255" class="st4" d="M-371.215,50.901l20.936-12.649c0,0,2.414-1.705,4.269-1.705s3.83,1.345,3.83,1.345
			l7.304,4.127"/>
		<path id="Path-255_3_" class="st4" d="M-328.258,26.39l6.132-3.719c0,0,2.414-1.705,4.269-1.705c1.855,0,3.83,1.345,3.83,1.345
			l7.304,4.127"/>
	</g>
</g>
<g>
	<g id="Group-5" transform="translate(127.268797, 76.112987)">
		<polygon id="Path-3" class="st1" points="-236.153,-6.405 -220.213,-15.628 -204.342,-6.49 -220.222,3.046 		"/>
		<g id="Group" transform="translate(1.000000, 0.000000)">
			<polygon id="Path-3_1_" class="st2" points="-236.839,-11.227 -236.839,-14.898 -221.214,-20.268 -205.656,-15.181 
				-205.656,-11.31 -221.222,-1.963 			"/>
			<polygon id="Path-3_2_" class="st2" points="-236.839,-15.086 -221.214,-24.128 -205.656,-15.17 -221.222,-5.822 			"/>
			<path id="Path-2" class="st2" d="M-221.284-6.01v3.974"/>
		</g>
	</g>
	<g id="Group-4" transform="translate(98.000000, 83.000000)">
		<polygon id="Path-5" class="st1" points="-214.292,-14.257 -222.171,-0.422 -237.711,-9.612 		"/>
		<g id="Group-3">
			<polygon id="Path-5_1_" class="st2" points="-237.711,-19.039 -214.292,-23.767 -214.292,-18.653 -222.171,-4.817 
				-237.711,-14.007 			"/>
			<polygon id="Path-5_2_" class="st2" points="-214.292,-23.876 -222.171,-10.041 -237.711,-19.231 			"/>
			<path id="Path-7" class="st2" d="M-222.269-9.282v4.262"/>
		</g>
	</g>
	<g id="Group-6" transform="translate(105.000000, 63.000000)">
		<path id="Path-4" class="st1" d="M-232.209-14.074c4.262-2.407,12.549-2.429,16.715-0.013c4.165,2.416,4.229,7.03-0.006,9.668
			s-12.642,2.447-16.826,0.001S-236.471-11.667-232.209-14.074z"/>
		<g id="Group-2" transform="translate(0.944613, 0.873658)">
			<path id="Path-4_1_" class="st2" d="M-233.153-19.343c4.262-2.407,12.549-2.429,16.715-0.013c4.165,2.416,4.229,7.03-0.006,9.668
				s-12.642,2.447-16.826,0.001S-237.416-16.936-233.153-19.343z"/>
			<path id="Path-4_2_" class="st2" d="M-233.153-23.522c4.262-2.407,12.549-2.429,16.715-0.013c4.165,2.416,4.229,7.03-0.006,9.668
				s-12.642,2.447-16.826,0.001S-237.416-21.115-233.153-23.522z"/>
			<path id="Path-6" class="st2" d="M-213.299-18.202v4.038"/>
			<path id="Path-6_1_" class="st2" d="M-236.342-18.202v4.038"/>
		</g>
	</g>
</g>
<rect y="-0.015" class="st5" width="187" height="121"/>
<g id="Page-1_3_">
	<g id="introduction_3_">
		<path id="Path-43_22_" class="st1" d="M21.346,80.188l60.514,35.079c0,0,2.915,1.837,5.969,1.784
			c3.054-0.053,5.954-1.992,5.954-1.992l69.598-41.175c0,0,2.681-1.249,2.468-2.759c-0.213-1.51-3.26-2.856-3.26-2.856
			l-61.171-35.246c0,0-1.944-1.181-4.124-1.146s-4.363,1.28-4.363,1.28L22.334,73.832c0,0-2.528,1.384-2.932,3.303
			C18.998,79.054,21.346,80.188,21.346,80.188z"/>
		<path id="Path-43_21_" class="st2" d="M21.346,75.188l60.514,35.079c0,0,2.915,1.837,5.969,1.784
			c3.054-0.053,5.954-1.992,5.954-1.992l69.598-41.175c0,0,2.372-1.374,2.468-2.759s-0.09-5.731-0.09-5.731l-64.342-32.371
			c0,0-1.944-1.181-4.124-1.146s-4.363,1.28-4.363,1.28L19.347,66.741c0,0-0.032,3.598,0.055,5.394
			C19.489,73.932,21.346,75.188,21.346,75.188z"/>
		<path id="Path-43_8_" class="st3" d="M21.346,69.188l60.514,35.079c0,0,2.915,1.837,5.969,1.784
			c3.054-0.053,5.954-1.992,5.954-1.992l69.598-41.175c0,0,2.681-1.249,2.468-2.759c-0.213-1.51-3.26-2.856-3.26-2.856
			l-61.171-35.246c0,0-1.944-1.181-4.124-1.146s-4.363,1.28-4.363,1.28L22.334,62.832c0,0-2.528,1.384-2.932,3.303
			C18.998,68.054,21.346,69.188,21.346,69.188z"/>
		<path id="Path-255_4_" class="st4" d="M71.974,38.55L92.91,25.901c0,0,2.414-1.705,4.269-1.705c1.855,0,3.83,1.345,3.83,1.345
			l7.304,4.127"/>
	</g>
</g>
<g>
	<path class="st6" d="M80.842,59.956c0-1.908,3.816-3.339,8.587-3.339s8.586,1.908,8.586,3.816c0,1.908-3.816,3.816-8.586,3.339
		C84.658,63.772,80.842,62.341,80.842,59.956"/>
	<path class="st6" d="M107.078,52.8c0-2.385,3.816-3.816,8.587-3.339c4.771,0,8.587,1.431,8.587,3.816
		c0,1.908-3.816,3.339-8.587,3.339C110.895,56.139,107.078,54.708,107.078,52.8"/>
	<path class="st6" d="M98.492,79.991c0-2.385,3.816-3.816,8.587-3.816s8.587,1.431,8.587,3.339c0,1.908-3.816,3.816-8.587,3.816
		S98.492,81.899,98.492,79.991"/>
	<path class="st6" d="M71.778,83.331c0-1.908,3.816-3.339,8.587-3.339c4.77,0,8.587,1.431,8.587,3.339
		c0,1.908-3.816,3.816-8.587,3.816C75.594,87.147,71.778,85.239,71.778,83.331"/>
	<line class="st7" x1="115.665" y1="45.644" x2="90.382" y2="53.754"/>
	<line class="st7" x1="116.142" y1="46.121" x2="107.078" y2="73.313"/>
	
		<ellipse transform="matrix(0.5954 -0.8035 0.8035 0.5954 -14.8393 115.2505)" class="st8" cx="107.002" cy="72.358" rx="7.512" ry="7.513"/>
	
		<ellipse transform="matrix(0.5954 -0.8035 0.8035 0.5954 -14.8393 115.2505)" class="st9" cx="107.002" cy="72.358" rx="7.512" ry="7.513"/>
	
		<ellipse transform="matrix(0.5954 -0.8035 0.8035 0.5954 10.4072 111.609)" class="st10" cx="116.01" cy="45.472" rx="7.512" ry="7.512"/>
	
		<ellipse transform="matrix(0.5954 -0.8035 0.8035 0.5954 10.4072 111.609)" class="st9" cx="116.01" cy="45.472" rx="7.512" ry="7.512"/>
	<line class="st11" x1="90.382" y1="52.8" x2="80.364" y2="76.175"/>
	<line class="st11" x1="90.382" y1="52.8" x2="59.852" y2="61.864"/>
	
		<ellipse transform="matrix(0.5954 -0.8035 0.8035 0.5954 -6.0644 93.9911)" class="st10" cx="90.283" cy="53.016" rx="7.512" ry="7.512"/>
	
		<ellipse transform="matrix(0.5954 -0.8035 0.8035 0.5954 -6.0644 93.9911)" class="st9" cx="90.283" cy="53.016" rx="7.512" ry="7.512"/>
	<path class="st10" d="M87.997,48.507L87.997,48.507z M87.997,48.507c0.477-0.477,3.339-0.954,4.293,0.477L87.997,48.507z"/>
	<path class="st12" d="M87.997,48.507L87.997,48.507z M87.997,48.507c0.477-0.477,3.339-0.954,4.293,0.477"/>
	
		<ellipse transform="matrix(0.5954 -0.8035 0.8035 0.5954 -28.4788 95.3842)" class="st10" cx="80.457" cy="75.966" rx="7.552" ry="7.552"/>
	
		<ellipse transform="matrix(0.5954 -0.8035 0.8035 0.5954 -28.4788 95.3842)" class="st13" cx="80.457" cy="75.966" rx="7.552" ry="7.552"/>
	<path class="st10" d="M78.456,70.928L78.456,70.928z M78.456,71.405c0.477-0.954,3.339-1.431,4.293,0H78.456z"/>
	<path class="st12" d="M78.456,70.928L78.456,70.928z M78.456,71.405c0.477-0.954,3.339-1.431,4.293,0"/>
	<path class="st8" d="M105.17,67.588L105.17,67.588z M104.693,68.065c0.954-0.954,3.339-1.431,4.77,0H104.693z"/>
	<path class="st12" d="M105.17,67.588L105.17,67.588z M104.693,68.065c0.954-0.954,3.339-1.431,4.77,0"/>
	<path class="st10" d="M114.234,40.874L114.234,40.874z M113.757,40.874c0.954-0.477,3.339-0.954,4.77,0.477L113.757,40.874z"/>
	<path class="st12" d="M114.234,40.874L114.234,40.874z M113.757,40.874c0.954-0.477,3.339-0.954,4.77,0.477"/>
	<path class="st6" d="M51.265,69.019c0-1.908,3.816-3.339,8.587-3.339c4.77-0.477,8.587,1.431,8.587,3.339
		c0,1.908-3.816,3.816-8.587,3.816S51.265,70.927,51.265,69.019"/>
	
		<ellipse transform="matrix(0.5954 -0.8035 0.8035 0.5954 -25.3409 72.9661)" class="st10" cx="59.772" cy="61.642" rx="7.552" ry="7.552"/>
	
		<ellipse transform="matrix(0.5954 -0.8035 0.8035 0.5954 -25.3409 72.9661)" class="st13" cx="59.772" cy="61.642" rx="7.552" ry="7.552"/>
	<path class="st10" d="M57.944,56.616L57.944,56.616z M57.467,57.093c0.954-0.954,3.816-1.431,4.77,0H57.467z"/>
	<path class="st12" d="M57.944,56.616L57.944,56.616z M57.467,57.093c0.954-0.954,3.816-1.431,4.77,0"/>
</g>
<path class="st5" d="M-1073.709,302.419"/>
<path class="st5" d="M-1216,302.419"/>
<path class="st5" d="M-1073.709,396"/>
</svg>
