<?xml version="1.0" encoding="utf-8"?>
<!-- Generator: Adobe Illustrator 21.0.0, SVG Export Plug-In . SVG Version: 6.00 Build 0)  -->
<svg version="1.1" id="Слой_1" xmlns="http://www.w3.org/2000/svg" xmlns:xlink="http://www.w3.org/1999/xlink" x="0px" y="0px"
	 viewBox="0 0 187 121" style="enable-background:new 0 0 187 121;" xml:space="preserve">
<style type="text/css">
	.st0{fill:#FFFFFF;stroke:#0E0F0F;stroke-miterlimit:10;}
	.st1{fill:#5D5F62;fill-opacity:0.15;}
	.st2{fill:#FFFFFF;stroke:#5D5F62;stroke-width:2;stroke-linecap:round;stroke-linejoin:round;}
	.st3{fill:#FFFFFF;stroke:#5D5F62;stroke-width:2;stroke-linejoin:round;}
	.st4{fill:none;stroke:#5D5F62;stroke-linecap:round;stroke-linejoin:round;}
	.st5{fill:none;}
</style>
<g>
	<rect x="-1235" y="0.335" class="st0" width="187" height="121"/>
	<g id="Page-1_1_">
		<g id="introduction_1_">
			<path id="Path-43_6_" class="st1" d="M-1213.654,80.538l60.514,35.079c0,0,2.915,1.837,5.969,1.784
				c3.054-0.053,5.954-1.992,5.954-1.992l69.598-41.175c0,0,2.681-1.249,2.468-2.759c-0.213-1.51-3.26-2.856-3.26-2.856
				l-61.171-35.246c0,0-1.944-1.181-4.124-1.146c-2.18,0.034-4.363,1.28-4.363,1.28l-70.598,40.674c0,0-2.528,1.384-2.932,3.303
				S-1213.654,80.538-1213.654,80.538z"/>
			<path id="Path-43_5_" class="st2" d="M-1213.654,75.538l60.514,35.079c0,0,2.915,1.837,5.969,1.784
				c3.054-0.053,5.954-1.992,5.954-1.992l69.598-41.175c0,0,2.372-1.374,2.468-2.759c0.096-1.384-0.09-5.731-0.09-5.731
				l-64.342-32.371c0,0-1.944-1.181-4.124-1.146s-4.363,1.28-4.363,1.28l-73.585,38.583c0,0-0.032,3.598,0.055,5.394
				C-1215.511,74.282-1213.654,75.538-1213.654,75.538z"/>
			<path id="Path-43_3_" class="st3" d="M-1213.654,69.538l60.514,35.079c0,0,2.915,1.837,5.969,1.784
				c3.054-0.053,5.954-1.992,5.954-1.992l69.598-41.175c0,0,2.681-1.249,2.468-2.759c-0.213-1.51-3.26-2.856-3.26-2.856
				l-61.171-35.246c0,0-1.944-1.181-4.124-1.146s-4.363,1.28-4.363,1.28l-70.598,40.674c0,0-2.528,1.384-2.932,3.303
				C-1216.002,68.404-1213.654,69.538-1213.654,69.538z"/>
			<path id="Path-255_1_" class="st4" d="M-1163.026,38.9l20.936-12.649c0,0,2.414-1.705,4.269-1.705c1.855,0,3.83,1.345,3.83,1.345
				l7.304,4.127"/>
		</g>
	</g>
</g>
<rect class="st5" width="187" height="121"/>
<g id="Page-1_2_">
	<g id="introduction_2_">
		<path id="Path-43_4_" class="st1" d="M21.346,79.174l60.514,35.079c0,0,2.915,1.837,5.969,1.784
			c3.054-0.053,5.954-1.992,5.954-1.992l69.598-41.175c0,0,2.681-1.249,2.468-2.759c-0.213-1.51-3.26-2.856-3.26-2.856
			L101.419,32.01c0,0-1.944-1.181-4.124-1.146s-4.363,1.28-4.363,1.28L22.334,72.819c0,0-2.528,1.384-2.932,3.303
			C18.998,78.041,21.346,79.174,21.346,79.174z"/>
		<path id="Path-43_2_" class="st2" d="M21.346,74.174l60.514,35.079c0,0,2.915,1.837,5.969,1.784
			c3.054-0.053,5.954-1.992,5.954-1.992l69.598-41.175c0,0,2.372-1.374,2.468-2.759c0.096-1.384-0.09-5.731-0.09-5.731
			L101.419,27.01c0,0-1.944-1.181-4.124-1.146s-4.363,1.28-4.363,1.28L19.347,65.727c0,0-0.032,3.598,0.055,5.394
			C19.489,72.918,21.346,74.174,21.346,74.174z"/>
		<path id="Path-43_1_" class="st3" d="M21.346,68.174l60.514,35.079c0,0,2.915,1.837,5.969,1.784
			c3.054-0.053,5.954-1.992,5.954-1.992l69.598-41.175c0,0,2.681-1.249,2.468-2.759c-0.213-1.51-3.26-2.856-3.26-2.856
			L101.419,21.01c0,0-1.944-1.181-4.124-1.146s-4.363,1.28-4.363,1.28L22.334,61.819c0,0-2.528,1.384-2.932,3.303
			C18.998,67.041,21.346,68.174,21.346,68.174z"/>
		<path id="Path-255_2_" class="st4" d="M71.974,37.537L92.91,24.888c0,0,2.414-1.705,4.269-1.705c1.855,0,3.83,1.345,3.83,1.345
			l7.304,4.127"/>
	</g>
</g>
<rect x="-207" class="st5" width="187" height="121"/>
<g id="Page-1">
	<g id="basic-web-pages">
		<path id="Path-43" class="st1" d="M-185.654,79.174l60.514,35.079c0,0,2.915,1.837,5.969,1.784
			c3.054-0.053,5.954-1.992,5.954-1.992l69.598-41.175c0,0,2.681-1.249,2.468-2.759c-0.213-1.51-3.26-2.856-3.26-2.856
			l-61.171-35.246c0,0-1.944-1.181-4.124-1.146s-4.363,1.28-4.363,1.28l-70.598,40.674c0,0-2.528,1.384-2.932,3.303
			C-188.002,78.041-185.654,79.174-185.654,79.174z"/>
		<path id="Path-43_18_" class="st2" d="M-185.654,74.174l60.514,35.079c0,0,2.915,1.837,5.969,1.784
			c3.054-0.053,5.954-1.992,5.954-1.992l69.598-41.175c0,0,2.372-1.374,2.468-2.759c0.096-1.384-0.09-5.731-0.09-5.731
			l-64.342-32.371c0,0-1.944-1.181-4.124-1.146s-4.363,1.28-4.363,1.28l-73.585,38.583c0,0-0.032,3.598,0.055,5.394
			C-187.511,72.918-185.654,74.174-185.654,74.174z"/>
		<path id="Path-43_17_" class="st3" d="M-185.654,68.174l60.514,35.079c0,0,2.915,1.837,5.969,1.784
			c3.054-0.053,5.954-1.992,5.954-1.992l69.598-41.175c0,0,2.681-1.249,2.468-2.759c-0.213-1.51-3.26-2.856-3.26-2.856
			l-61.171-35.246c0,0-1.944-1.181-4.124-1.146s-4.363,1.28-4.363,1.28l-70.598,40.674c0,0-2.528,1.384-2.932,3.303
			C-188.002,67.041-185.654,68.174-185.654,68.174z"/>
		<path id="Path-43_15_" class="st1" d="M-129.124,42.51l48.32,27.231c0,0,2.915,1.837,5.969,1.784
			c3.054-0.053,5.954-1.992,5.954-1.992l12.551-7.641c0,0,2.681-1.249,2.468-2.759s-3.26-2.856-3.26-2.856l-49.37-27.59
			c0,0-1.944-1.181-4.124-1.146s-4.363,1.28-4.363,1.28l-13.158,7.333c0,0-2.528,1.384-2.932,3.303S-129.124,42.51-129.124,42.51z"
			/>
		<path id="Path-43_14_" class="st3" d="M-129.124,37.51l48.32,27.231c0,0,2.915,1.837,5.969,1.784
			c3.054-0.053,5.954-1.992,5.954-1.992l12.551-7.641c0,0,2.425-1.299,2.468-2.759s-0.008-4.335-0.008-4.335l-52.623-26.111
			c0,0-1.944-1.181-4.124-1.146s-4.363,1.28-4.363,1.28l-16.111,6.601c0,0-0.005,2.223,0.021,4.036
			C-131.043,36.27-129.124,37.51-129.124,37.51z"/>
		<path id="Path-43_13_" class="st3" d="M-129.124,32.51l48.32,27.231c0,0,2.915,1.837,5.969,1.784
			c3.054-0.053,5.954-1.992,5.954-1.992l12.551-7.641c0,0,2.681-1.249,2.468-2.759s-3.26-2.856-3.26-2.856l-49.37-27.59
			c0,0-1.944-1.181-4.124-1.146s-4.363,1.28-4.363,1.28l-13.158,7.333c0,0-2.528,1.384-2.932,3.303S-129.124,32.51-129.124,32.51z"
			/>
		<path id="Path-43_11_" class="st1" d="M-172.856,68.118l48.32,27.231c0,0,2.915,1.837,5.969,1.784
			c3.054-0.053,5.954-1.992,5.954-1.992l27.901-16.605c0,0,2.681-1.249,2.468-2.759c-0.213-1.51-3.26-2.856-3.26-2.856l-49.37-27.59
			c0,0-1.944-1.181-4.124-1.146c-2.18,0.034-4.363,1.28-4.363,1.28l-28.508,16.298c0,0-2.528,1.384-2.932,3.303
			C-175.205,66.984-172.856,68.118-172.856,68.118z"/>
		<path id="Path-43_10_" class="st3" d="M-172.856,63.118l48.32,27.231c0,0,2.915,1.837,5.969,1.784
			c3.054-0.053,5.954-1.992,5.954-1.992l27.901-16.605c0,0,2.408-1.281,2.468-2.759s0.001-5.386,0.001-5.386l-52.631-25.06
			c0,0-1.944-1.181-4.124-1.146c-2.18,0.034-4.363,1.28-4.363,1.28l-31.41,14.612c0,0,0.033,3.009-0.03,4.989
			C-174.864,62.045-172.856,63.118-172.856,63.118z"/>
		<path id="Path-43_7_" class="st3" d="M-172.856,57.118l48.32,27.231c0,0,2.915,1.837,5.969,1.784
			c3.054-0.053,5.954-1.992,5.954-1.992l27.901-16.605c0,0,2.681-1.249,2.468-2.759c-0.213-1.51-3.26-2.856-3.26-2.856l-49.37-27.59
			c0,0-1.944-1.181-4.124-1.146c-2.18,0.034-4.363,1.28-4.363,1.28l-28.508,16.298c0,0-2.528,1.384-2.932,3.303
			C-175.205,55.984-172.856,57.118-172.856,57.118z"/>
		<path id="Path-255" class="st4" d="M-164.215,50.901l20.936-12.649c0,0,2.414-1.705,4.269-1.705c1.855,0,3.83,1.345,3.83,1.345
			l7.304,4.127"/>
		<path id="Path-255_3_" class="st4" d="M-121.258,26.39l6.132-3.719c0,0,2.414-1.705,4.269-1.705c1.855,0,3.83,1.345,3.83,1.345
			l7.304,4.127"/>
	</g>
</g>
<g>
	<g id="Group-5" transform="translate(127.268797, 76.112987)">
		<polygon id="Path-3" class="st1" points="-29.153,-6.405 -13.213,-15.628 2.658,-6.49 -13.222,3.046 		"/>
		<g id="Group" transform="translate(1.000000, 0.000000)">
			<polygon id="Path-3_1_" class="st2" points="-29.839,-11.227 -29.839,-14.898 -14.214,-20.268 1.344,-15.181 1.344,-11.31 
				-14.222,-1.963 			"/>
			<polygon id="Path-3_2_" class="st2" points="-29.839,-15.086 -14.214,-24.128 1.344,-15.17 -14.222,-5.822 			"/>
			<path id="Path-2" class="st2" d="M-14.284-6.01v3.974"/>
		</g>
	</g>
	<g id="Group-4" transform="translate(98.000000, 83.000000)">
		<polygon id="Path-5" class="st1" points="-7.292,-14.257 -15.171,-0.422 -30.711,-9.612 		"/>
		<g id="Group-3">
			<polygon id="Path-5_1_" class="st2" points="-30.711,-19.039 -7.292,-23.767 -7.292,-18.653 -15.171,-4.817 -30.711,-14.007 			
				"/>
			<polygon id="Path-5_2_" class="st2" points="-7.292,-23.876 -15.171,-10.041 -30.711,-19.231 			"/>
			<path id="Path-7" class="st2" d="M-15.269-9.282v4.262"/>
		</g>
	</g>
	<g id="Group-6" transform="translate(105.000000, 63.000000)">
		<path id="Path-4" class="st1" d="M-25.209-14.074c4.262-2.407,12.549-2.429,16.715-0.013s4.229,7.03-0.006,9.668
			s-12.642,2.447-16.826,0.001S-29.471-11.667-25.209-14.074z"/>
		<g id="Group-2" transform="translate(0.944613, 0.873658)">
			<path id="Path-4_1_" class="st2" d="M-26.153-19.343c4.262-2.407,12.549-2.429,16.715-0.013s4.229,7.03-0.006,9.668
				S-22.086-7.241-26.27-9.687S-30.416-16.936-26.153-19.343z"/>
			<path id="Path-4_2_" class="st2" d="M-26.153-23.522c4.262-2.407,12.549-2.429,16.715-0.013s4.229,7.03-0.006,9.668
				s-12.642,2.447-16.826,0.001S-30.416-21.115-26.153-23.522z"/>
			<path id="Path-6" class="st2" d="M-6.299-18.202v4.038"/>
			<path id="Path-6_1_" class="st2" d="M-29.342-18.202v4.038"/>
		</g>
	</g>
</g>
</svg>
